<svg xmlns="http://www.w3.org/2000/svg" width="23.33" height="22.649" viewBox="0 0 23.33 22.649"><path d="M13,21.02a13.775,13.775,0,0,0,3.031-.327l-2.049-2.049c-.318.024-.642.044-.982.044a9.74,9.74,0,0,1-9.247-5.832,10.138,10.138,0,0,1,1.766-2.688l-.007.007L3.88,8.543a12.394,12.394,0,0,0-2.487,3.943,1.134,1.134,0,0,0-.059.369,1.181,1.181,0,0,0,.063.378l0-.009A12.235,12.235,0,0,0,13,21.02Zm11.606-7.8a1.134,1.134,0,0,0,.059-.369,1.181,1.181,0,0,0-.063-.378l0,.009A12.235,12.235,0,0,0,13,4.688,12.52,12.52,0,0,0,7.627,5.832l-4.3-4.3-1.65,1.65,21,21,1.65-1.65L20.45,18.656A12.673,12.673,0,0,0,24.6,13.222Zm-8.466,1.12a3.369,3.369,0,0,0,.36-1.489,3.524,3.524,0,0,0-3.5-3.5,3.369,3.369,0,0,0-1.489.36L9.4,7.6a10.578,10.578,0,0,1,3.507-.584H13a9.74,9.74,0,0,1,9.247,5.833A9.984,9.984,0,0,1,18.8,17L16.14,14.342Z" transform="translate(-1.334 -1.529)" fill="#818992"/></svg>