<svg xmlns="http://www.w3.org/2000/svg" xmlns:xlink="http://www.w3.org/1999/xlink" width="1059.968" height="988.668" viewBox="0 0 1059.968 988.668"><defs><linearGradient id="a" x1="0.5" x2="0.5" y2="1" gradientUnits="objectBoundingBox"><stop offset="0" stop-color="#00f8e8"/><stop offset="1" stop-color="#00b9ba"/></linearGradient><linearGradient id="b" x1="0.126" y1="0.152" x2="0.905" y2="0.887" gradientUnits="objectBoundingBox"><stop offset="0" stop-color="#00f8e8"/><stop offset="1" stop-color="#00b8ba"/></linearGradient><linearGradient id="c" x1="0.136" y1="0.932" x2="0.949" y2="0.5" gradientUnits="objectBoundingBox"><stop offset="0" stop-color="#00b8ba"/><stop offset="1" stop-color="#00f8e8"/></linearGradient><linearGradient id="d" x1="0.05" y1="0.191" x2="0.926" y2="0.909" xlink:href="#b"/><linearGradient id="e" x1="0.165" y1="0.957" x2="0.948" y2="0.151" gradientUnits="objectBoundingBox"><stop offset="0" stop-color="#9fe9b1"/><stop offset="1" stop-color="#d8f4e3"/></linearGradient><linearGradient id="f" x1="-0.222" y1="-0.227" x2="0.871" y2="0.929" xlink:href="#b"/><linearGradient id="g" x1="1" y1="0.147" x2="0.13" y2="0.938" gradientUnits="objectBoundingBox"><stop offset="0" stop-color="#daf4e5"/><stop offset="1" stop-color="#9feab2"/></linearGradient><linearGradient id="h" x1="0.962" y1="0.429" x2="0.054" y2="0.808" xlink:href="#e"/><linearGradient id="i" x1="0.955" y1="0.147" x2="0.31" y2="1" xlink:href="#b"/><linearGradient id="j" x1="-0.032" y1="1" x2="1" y2="0.5" xlink:href="#b"/><linearGradient id="k" x1="0.7" y1="0.94" x2="0.874" y2="0.071" xlink:href="#e"/><linearGradient id="l" x1="0.63" y1="0.98" x2="0.881" y2="0.051" xlink:href="#e"/><linearGradient id="m" x1="0.946" y1="0.738" x2="-0.093" y2="0.634" xlink:href="#e"/><linearGradient id="n" x1="0.339" y1="1" x2="0.888" y2="0.048" xlink:href="#e"/><linearGradient id="o" x1="-0.139" y1="1.176" x2="0.796" y2="0.22" gradientUnits="objectBoundingBox"><stop offset="0" stop-color="#fff"/><stop offset="1" stop-color="#fff" stop-opacity="0"/></linearGradient><clipPath id="p"><path d="M485.377,106.041s-29.6,38.463-34.077,40-2.144-74.181-2.144-74.181c-5.076-26.711-34.838-26.711-34.838-26.711l-46.928-3.3s-17.008.735-21.9,16.771l-.1-.114s-.24,1.123-.666,3.182h0c-4.315,20.871-28.113,139.36-23.184,190.326l21.406-3.287s4.9-91.347,18.646-146.67l1.161,10.716c2.651,10.685,3.253,22.644-2.358,32.113-9.3,15.685-8.1,35.1-8.1,35.1l85.273,4.933s-1.74-4.933-1-3.648c26.4,8.874,72.675-55.147,72.675-55.147Z" transform="translate(-320.87 -41.853)" fill="none" opacity="0.18"/></clipPath></defs><g transform="translate(-51.778 -146.282)"><g transform="matrix(-0.899, -0.438, 0.438, -0.899, 807.141, 1134.95)"><g transform="translate(0 0)"><path d="M285.27,643.428c49.738,6.4,99.9,7.353,149.953,9.272,22.947.879,45.445-.179,66.629,8.051,19.836,7.709,35.675,23.181,56.142,29.813,15.884,5.145,33.02,4.964,49.611,3.077,70.174-7.984,136.235-47.064,177.025-104.723,37.357-52.806,52.956-120.374,43.171-184.258-5.936-38.748-23.768-74.883-28.042-113.925-4.518-41.274,11.246-77.258,21.208-116.508a298.97,298.97,0,0,0,8.983-83.948c-.576-16.259-2.619-32.921-10.311-47.258C798.748,4.082,746.066-3.265,702.094,1.125A411.53,411.53,0,0,0,545.48,49.79C507.67,70.668,470.222,101.057,426.83,109.3c-48.928,9.288-86.773-24.241-130.806-39.534C196.949,35.351,77.33,102.945,33.652,192.848-20.264,303.833-14.127,485.39,86.8,567.755c55,44.885,125.868,66.1,196.247,75.384Q284.156,643.287,285.27,643.428Z" fill="rgba(111,68,255,0.05)"/></g></g><g transform="translate(405.039 251.807)"><g transform="translate(51.711 0)"><path d="M3.581.065a274.269,274.269,0,0,1,53.13,17.277C64.914,20.9,73,26.214,81.531,28.83a76.157,76.157,0,0,1,25.92,13.315,324.132,324.132,0,0,1,41.487,38.689q9.825,10.768,18.724,22.341c7.255,9.438,15.467,18.251,11.546,30.958-2.1,6.819-8.936,12.3-16.272,11.946-12.005-.586-16.629-7.941-23.234-16.589q-8.361-10.943-17.577-21.2C110.17,94.968,97.086,83.025,83.6,71.3A135.129,135.129,0,0,1,65.559,52.026c-5.064-6.391-12.424-11.355-18.82-16.3C32.227,24.507,16.932,14.7,1.322,5.108-1.481,3.387.6-.554,3.581.065Z" transform="translate(27.876 0) rotate(11)" fill="url(#a)"/><path d="M369.288,245.593c4.16-4.972,6.3-11.246,11.819-14.931,4.572-3.052,10.515-5.024,15.872-6.169,13.981-2.986,28.917-1.212,42.661,2.169,25.551,6.281,55.856,20.074,72.016,41.649,5.5,7.345,6.557,14.827,2.307,23.074-3.564,6.919-11.7,9.722-19.022,8.6-9-1.381-13.231-8.812-19.562-14.312-8.672-7.536-19.42-12.972-30.065-17.124-12.786-4.988-25.425-9.791-37.892-15.584-9.207-4.276-27.753-12.507-37.082-5.914C369.431,247.691,368.693,246.307,369.288,245.593Z" transform="translate(-330.605 -49.388)" fill="url(#b)"/><path d="M491.889,216.479c26.748-2.091,48.539,21.951,58.823,44.406.369.8-.326,2.017-1.312,1.624-8.41-3.35-15.948-8.5-24.613-11.238-7.607-2.407-16.951-2.655-24.844-1.4-15.762,2.51-19.1,18.855-22.246,32.339-2.348,10.074-14.258,15.743-23.765,12.941-10.729-3.164-14.893-13.574-12.941-23.765C446.021,245.139,462.914,218.746,491.889,216.479Z" transform="translate(-231.928 -58.53)" fill="url(#c)"/><path d="M388.235,301.7c6.145-9.25,11.4-18.077,20.7-24.586,9.891-6.924,22.167-11.422,34.313-11.591,26.275-.369,56.549,18.053,64.947,43.549,6.1,18.508-19.232,29.465-31.506,17.155-5.419-5.436-8.984-12-15.379-16.546a65.339,65.339,0,0,0-21.882-9.769c-14.6-3.738-34.694-4.522-47.375,4.912C389.961,306.378,386.544,304.242,388.235,301.7Z" transform="translate(-304.772 9.364)" fill="url(#d)"/><path d="M483.263,264.137c8.984-5.122,18.986-7.179,29.089-4.424,9.386,2.557,13.781,8.714,20.367,14.986,1.343,1.279-.176,4-1.981,3.224-9.076-3.938-25.32,6.526-31.272,13.048-8.438,9.246-10.086,22.886-9.536,34.818,1.112,24.17-38.184,23.779-37.765-.671C452.578,300.843,461.243,276.694,483.263,264.137Z" transform="translate(-215.861 -0.342)" fill="url(#e)"/><path d="M404,310.4c12.4-10.807,24.777-12.112,39.942-5.181,17.062,7.8,29.667,21.017,42.585,34.189,17.308,17.648-11.188,44.616-28,26.346-9.367-10.179-17.417-20.882-26.151-31.506-5.8-7.053-17.065-18.56-26.72-19.548C403.648,314.49,402.245,311.931,404,310.4Z" transform="translate(-283.472 58.277)" fill="url(#f)"/><path d="M473.084,338.645c6.093-1.11,9.931-5.338,13.965-9.865,6.438-7.224,13.2-14.717,22.139-18.886a37.244,37.244,0,0,1,22.308-3.26c8.31,1.35,11.7,4.688,16.3,11.274a2.513,2.513,0,0,1-2.586,4.041c-13.212-2.933-21.551,20.262-27.041,27.808-9.146,12.562-21.086,23.56-36.842,26.432C457.012,380.622,448.685,343.093,473.084,338.645Z" transform="translate(-207.218 65.466)" fill="url(#g)"/><path d="M388.744,282.3c50.206,10.755,94.693,43.149,121.023,87.2,2.655,4.443,5.3,9.107,7.729,13.915a615.621,615.621,0,0,0-33.725-104.553,639.9,639.9,0,0,0-43.585-84.426c-.521-.85.819-1.562,1.35-.736a587.109,587.109,0,0,1,69.852,154.828c1.645,5.7,3.188,11.422,4.672,17.167,3.762-26.056,12.5-51.9,23.839-75.516,4.781-9.957,9.465-23.548,19.129-29.913,6.155-4.053,15.443-3.833,19.732,2.767.055.083-.086.188-.145.1-3.343-4.586-9.012-5.615-14.267-4-5.819,1.79-9.838,7.107-12.8,12.129-5.922,10.029-10.431,21.017-14.524,31.894-8.188,21.774-13.843,43.675-18.636,66.388-.122.588,2.919,17.831,4.662,26.32,1.681,4.374,3.588,14.781,2.874,14.95,4.1,22.755,8.812,75.39,8.91,77.317l.45-1.083a1.51,1.51,0,0,1,.957-.917c13.9-20.508,17.343-44.32,22.7-68.138,4.276-19,11.015-47.344,31.513-55.394a.15.15,0,0,1,.143.264c-20.546,14.458-25.427,40.449-30.058,63.6-4.4,22.032-8.265,46.1-23.182,63.873-.648.771-1.729,18.065-1.707,27.175.019,9.014.071,26.62.548,26.632,17.851.362,28.213-16.06,37.156-29.032,7.836-11.367,17.346-22.613,31.875-24.489.293-.038.412.4.112.455-32.308,5.679-33.5,57.526-69.207,56.683-.521-.012-4.5,43.13-8.186,64.721-.176,1.019-1.962.755-1.817-.279q4.661-33.037,6.057-66.357c-16.8-5.031-28.415-20.751-37.353-34.882-10.348-16.355-18.7-33.068-34.675-44.782a.347.347,0,0,1,.367-.588c14.653,8.076,24.282,23.377,32.984,37.12,10.312,16.281,20.736,31.6,38.785,39.6.721-20.155.545-40.335-.674-60.473-9.786-3.55-17.208-14.355-21.808-23-5.914-11.115-8.991-23.36-13.462-35.063-5-13.091-12.024-24.948-23.979-32.787a58.173,58.173,0,0,0-37.513-9.2c-.279.026-.333-.448-.055-.49,24.234-3.691,47.578,8.812,59.18,30.141,6.453,11.858,9.726,25.058,14.953,37.442a77.959,77.959,0,0,0,10.248,18.12c3.562,4.519,7.7,7.486,12.165,10.555q-1.168-17.3-3.324-34.544-2.539-20.1-6.4-40.025c-3.66-9.088-7.21-18.117-12.043-26.772A189.76,189.76,0,0,0,487.745,345a196.134,196.134,0,0,0-58.68-46.63,183.831,183.831,0,0,0-40.525-15.381C388.085,282.882,388.294,282.2,388.744,282.3Z" transform="translate(-304.074 -90.324)" fill="#fff"/></g><g transform="translate(0 231.616)"><path d="M335.166,343.379c.619-5.183-.7-10.355,1.4-15.27a37.978,37.978,0,0,1,7.988-11.146c8.115-8.164,18.97-13.541,29.725-17.31,20-7,46.5-11.038,66.895-3.6,6.943,2.533,10.948,7.114,11.71,14.548.64,6.234-3.612,11.7-9.046,14.165-6.674,3.029-12.8-.119-19.491-1.043-9.165-1.267-18.805-.2-27.81,1.681-10.819,2.262-21.458,4.583-32.413,6.164-8.091,1.167-24.22,3.776-27.61,12.327C336.185,344.731,335.078,344.124,335.166,343.379Z" transform="translate(-325.729 -185.567)" fill="url(#h)"/><path d="M399.732,266.142c17.117-13.181,42.394-6.557,59.209,4.062.6.379.667,1.5-.169,1.674-7.148,1.44-14.5,1.288-21.546,3.25a45.856,45.856,0,0,0-17.369,9.988c-9.526,8.629-4.586,21.124-.772,31.6,2.85,7.826-2.688,16.891-10.334,19.184-8.629,2.586-16.017-2.6-19.184-10.334C381.408,305.653,381.186,280.419,399.732,266.142Z" transform="translate(-257.896 -231.498)" fill="url(#i)"/><path d="M369.073,371.348c.074-8.943-.267-17.205,3.141-25.691a50.546,50.546,0,0,1,18.041-22.917c17.558-11.81,46.082-12.705,62.966.793,12.255,9.8,0,28.334-13.7,25.434-6.045-1.281-11.338-4.138-17.653-4.393a52.6,52.6,0,0,0-19.055,3.04c-11.493,3.9-25.389,12.219-29.789,24.16C372.3,373.746,369.054,373.808,369.073,371.348Z" transform="translate(-278.896 -155.78)" fill="url(#j)"/><path d="M415.331,300.275c3.8-7.407,9.643-13.2,17.667-15.784,7.457-2.407,13.131-.188,20.331,1.143,1.467.271,1.645,2.781.083,3.045-7.853,1.341-14.2,15.543-15.348,22.563-1.621,9.948,3.267,19.872,8.888,27.677,11.386,15.81-15.286,32.839-25.765,16.167C410.788,338.531,406,318.432,415.331,300.275Z" transform="translate(-221.901 -197.522)" fill="url(#k)"/><path d="M4.988,16.854c3.8-7.407,9.643-13.2,17.667-15.784C30.112-1.337,35.786.882,42.986,2.213c1.467.271,1.645,2.781.083,3.045C35.217,6.6,28.867,20.8,27.722,27.821,26.1,37.769,30.989,47.693,36.61,55.5,48,71.308,21.324,88.337,10.845,71.665.445,55.11-4.339,35.012,4.988,16.854Z" transform="matrix(0.799, -0.602, 0.602, 0.799, 0, 26.58)" fill="url(#l)"/><path d="M390.266,359.994c3.61-12.746,11.381-19.072,24.658-21.072,14.936-2.25,29.256,1.121,43.763,4.319,19.439,4.288,12.088,35.013-7.286,30.089-10.8-2.745-20.936-6.419-31.5-9.741-7.014-2.2-19.677-5.01-26.622-1.426C391.828,362.911,389.754,361.8,390.266,359.994Z" transform="translate(-249.737 -121.883)" fill="url(#m)"/><path d="M440.677,358.968c3.622-3.431,4.348-7.972,5.076-12.8,1.162-7.7,2.424-15.734,6.619-22.479a29.973,29.973,0,0,1,13.61-12.012c6.2-2.748,9.953-1.986,15.955.429a2.023,2.023,0,0,1,.033,3.862c-10.2,3.838-5.617,23.148-6,30.653-.638,12.5-3.852,25.17-13.215,34.039C448.308,394.347,426.181,372.7,440.677,358.968Z" transform="translate(-186.54 -160.91)" fill="url(#n)"/><path d="M349.9,360.425c38.592-14.839,82.848-12.567,119.987,5.553,3.745,1.829,7.581,3.812,11.336,5.983a495.726,495.726,0,0,0-68.752-55.671,515.581,515.581,0,0,0-66.542-37.761c-.726-.343-.136-1.412.586-1.088A472.757,472.757,0,0,1,461.754,351.12q5.425,4.679,10.705,9.522c-8.927-19.224-14.405-40.5-17.151-61.418-1.157-8.819-3.981-20.046-.262-28.591,2.367-5.441,8.729-9.379,14.522-6.814.076.033.026.164-.05.133-4.274-1.621-8.548.181-11.381,3.583-3.136,3.769-3.507,9.122-3.3,13.812.417,9.369,2.212,18.765,4.238,27.9,4.06,18.289,9.881,35.546,16.646,52.973.174.45,9.812,10.741,14.724,15.7,3.057,2.21,8.924,8.391,8.517,8.819,12.774,13.543,39.115,46.966,40.03,48.221l-.174-.926a1.228,1.228,0,0,1,.243-1.04c.352-19.948-7.8-37.522-14.672-55.942-5.479-14.7-13.405-36.777-3.124-51.225a.121.121,0,0,1,.212.117c-7.493,18.789.65,38.468,7.719,56.121,6.724,16.8,14.71,34.727,12.472,53.278-.1.8,6.781,12.943,10.805,19.079,3.981,6.069,11.762,17.92,12.086,17.717,12.2-7.61,11.962-23.246,12.286-35.927.283-11.115,1.748-22.884,10.719-30.541.181-.155.455.088.276.257-19.291,18.046,2.724,53.535-21.732,68.681-.357.219,15.948,31.065,22.958,47.249.331.764-.991,1.374-1.348.612q-11.393-24.333-25.113-47.416c-13.543,4-28.294-1.49-40.542-7.088-14.174-6.476-27.16-14.074-43.089-14.943a.28.28,0,0,1-.012-.56c13.436-1,26.66,5.081,38.58,10.522,14.117,6.441,27.889,12.186,43.582,9.641q-12.572-20.865-27.065-40.487c-8.162,1.912-17.922-2.107-24.825-5.912-8.879-4.893-16.343-11.8-24.508-17.722-9.134-6.629-19.089-11.536-30.6-11.56a46.843,46.843,0,0,0-29.346,10.3c-.176.143-.424-.155-.255-.3,14.722-13.153,35.965-14.993,53.175-5.714,9.569,5.157,17.586,12.619,26.56,18.672a62.883,62.883,0,0,0,14.884,7.71c4.391,1.481,8.488,1.662,12.85,1.767q-8.4-11.154-17.441-21.834Q504,395.092,492.626,383.361c-6.467-4.519-12.834-9.048-19.9-12.758a152.777,152.777,0,0,0-28.46-11.453,158,158,0,0,0-60.095-5.626,148.071,148.071,0,0,0-34.1,7.46C349.712,361.108,349.555,360.558,349.9,360.425Z" transform="translate(-311.313 -225.702)" fill="#fff"/></g><g transform="translate(250.993 521.605)"><path d="M489.678,369.136H439.472a2.856,2.856,0,0,0-2.786,3.488l1.862,8.172a2.855,2.855,0,0,0,2.783,2.224h46.487A2.855,2.855,0,0,0,490.6,380.8l1.86-8.172A2.853,2.853,0,0,0,489.678,369.136Z" transform="translate(-436.614 -369.136)" fill="#ffc300"/><path d="M438.882,375.518l4.043,28.025a3.863,3.863,0,0,0,3.822,3.312h29.391a3.863,3.863,0,0,0,3.822-3.312L484,375.518Z" transform="translate(-433.481 -360.322)" fill="#ffc300"/></g></g><g transform="translate(51.778 287.807)"><g transform="translate(0 243.962)"><path d="M286.59,82.6c.007-.152.911-.245,2.02-.2s2.006.193,2,.345-.909.245-2.018.207S286.585,82.751,286.59,82.6Z" transform="translate(-286.59 -82.385)" fill="#00143a"/></g><g transform="translate(583.975 150.107)"><path d="M594.665,206.268l13.015,16.754s-17.449,19.434-11.621,17.615,37.932-27.611,37.932-27.611-15.486-20.785-15.226-20.938S594.665,206.268,594.665,206.268Z" transform="translate(-445.479 162.839)" fill="#635449"/><path d="M607.616,146.764l54.969,115.85-34.926,19.659L570.548,178.517l3.6-34.154Z" transform="translate(-478.755 96.988)" fill="#7dadb2"/><g transform="translate(122.412 252.514)" opacity="0.36"><path d="M640.634,258.507a5.052,5.052,0,0,1-.64-1.09c-.39-.771-.935-1.844-1.628-3.206l-2.62-5.05c-1.042-1.968-2.223-4.2-3.527-6.663-5.319-9.871-12.632-23.444-20.712-38.434-8.1-15.014-15.352-28.648-20.419-38.617-1.247-2.494-2.375-4.755-3.372-6.749-.947-2-1.768-3.722-2.446-5.148-.645-1.426-1.111-2.549-1.428-3.308a4.933,4.933,0,0,1-.421-1.188,5.267,5.267,0,0,1,.638,1.088q.589,1.16,1.628,3.208l2.62,5.05c1.042,1.966,2.223,4.2,3.527,6.661,5.319,9.871,12.634,23.444,20.716,38.441s15.348,28.641,20.412,38.61l3.375,6.749c.947,2,1.768,3.722,2.447,5.148.645,1.428,1.114,2.549,1.43,3.31A5.173,5.173,0,0,1,640.634,258.507Z" transform="translate(-583.414 -149.054)" fill="#154593"/></g><path d="M583.924,227.018l2.5,4.545L596.46,151.74l-2.468-5.24-9.172-.268-3.589,37.688Z" transform="translate(-464.014 99.569)" fill="#154593" opacity="0.23"/><g transform="translate(165.604 277.292)"><path d="M645.907,160.787,687,301.851h4.7L660.167,160.31Z" transform="translate(-540.378 -158.299)" fill="#ad9380"/><path d="M632.854,160.828l-31.29,137.987h5.551l41.879-138.029Z" transform="translate(-601.563 -157.643)" fill="#ad9380"/><path d="M630.1,159.465l4.788,141.172h6.565l2.881-140.627Z" transform="translate(-562.193 -159.465)" fill="#ad9380"/><path d="M618.185,185.984l93.843-2.941.62,9.717-101.506,3.893Z" transform="translate(-588.346 -126.933)" fill="#ad9380"/><path d="M615.524,160.786l-1.439,7.139h15.528l1.938-7.139Z" transform="translate(-584.286 -157.643)" fill="#00143a" opacity="0.15"/><path d="M630.123,161.653l.233,6.869h13.771l.167-8.169Z" transform="translate(-562.157 -158.24)" fill="#00143a" opacity="0.15"/><path d="M635.518,183.54l.343,10.105h-5.974l-2.322-9.856,9.534-.249" transform="translate(-565.686 -126.247)" fill="#00143a" opacity="0.15"/><path d="M635.99,183.711v10.04l4.529-.173,1.314-10.049Z" transform="translate(-554.061 -126.263)" fill="#00143a" opacity="0.15"/><path d="M645.907,159.944l1.469,5.042H661.4l-1.229-5.519Z" transform="translate(-540.378 -159.463)" fill="#00143a" opacity="0.15"/></g><path d="M602.36,271.293c13.346-6.54,67.28-3.015,67.28-3.015S654.411,79.225,674.1,77.712s64.291-15.69,72.332,12.9c8.453,30.045-2.975,190.664-14.258,189.107-25.731-3.551-105.085,5.64-128.976.014C597.039,278.28,602.36,271.293,602.36,271.293Z" transform="translate(-437.807 -1.662)" fill="#fce8cf"/><g transform="translate(283.858 92.21)" opacity="0.23"><path d="M659.057,81.7c.083-.045.462.471,1.111,1.511a22.47,22.47,0,0,1,1.1,1.978c.433.788.852,1.73,1.318,2.8a66.719,66.719,0,0,1,4.65,19.112c.916,8.284.973,18.148.79,29.067s-.849,22.925-1.828,35.483c-1,12.563-2.2,24.5-3.336,35.34s-2.223,20.643-3.751,28.791a123.509,123.509,0,0,1-4.919,18.993c-1.58,4.36-2.76,6.642-2.91,6.58-.2-.079.635-2.489,1.885-6.906a160.907,160.907,0,0,0,4.019-18.991c1.266-8.108,2.159-17.856,3.141-28.715s2.12-22.782,3.115-35.309c.976-12.523,1.713-24.462,2.039-35.331s.464-20.673-.193-28.815a74.838,74.838,0,0,0-3.708-18.912C660.071,84.062,658.85,81.811,659.057,81.7Z" transform="translate(-651.254 -81.694)" fill="#2b4c60"/></g><path d="M595.8,119.5l-4.9-2.625a51.017,51.017,0,0,1-8.317-4.257,15.054,15.054,0,0,1-3.555-3.025,22.878,22.878,0,0,1-3.377-4.726c-.685-1.628-2.927-1.761-3.272-.283s1.438,6.007,5.562,10.055-4.569,2.834-7.739,2.446-12.992-1.123-13.791-.25c-1.173,1.278.107,2.9,3.275,3.215,3.208.317,12.668,1.913,12.539,3.563-.126,1.625-16.259-.557-16.259-.557s-3.427-1.019-3.639.876c-.383,3.42,16.82,4.488,18.455,4.55a.873.873,0,1,1-.162,1.737c-1.261-.117-16.076-2.549-16.5.926-.326,2.665,14.155,1.011,17.106,3.2s-11.214.124-11.418,2.692c-.078.957,0,1.694,8.2,1.721,8.394.026,30.8-3.615,30.8-3.615l-3.244-15.876" transform="translate(-503.916 40.681)" fill="#f6ba99"/><g transform="translate(80.517 92.875)"><path d="M687.671,81.973s-42.22,56.718-51.906,59.25-65.028,5.854-65.028,5.854l-4.926,23.972s70.847,3.739,86.447-7.777c24.517-18.1,50.274-59.729,50.274-59.729C703.18,89.814,697.937,82.958,687.671,81.973Z" transform="translate(-565.81 -81.973)" fill="#ef6c74"/></g><path d="M579.282,206.763l2.68,21.045S557.055,235.659,563,237.06s46.7-4.472,46.7-4.472-2.756-25.773-2.456-25.771Z" transform="translate(-490.438 183.089)" fill="#635449"/><path d="M668.334,126.535s23.52,50.264-22.856,67.515l-24.745-53.781Z" transform="translate(-409.509 72.389)" fill="#a0d2db"/><path d="M717.012,142.714s-133.872-36.768-148.914-5.9,2.858,191.63,2.858,191.63l41.9-4.405s-6.971-141.161,0-146.123,103.424,19.415,113.551,18.974C751.056,195.82,768.49,149.837,717.012,142.714Z" transform="translate(-490.439 69.546)" fill="#a0d2db"/><path d="M657.241,75.867a33.424,33.424,0,0,0-32.687,31.861c-.674,14.6.771,34.655-3.218,52.256-2.054,9.058-13.879,45.612-13.879,45.612l11.878,1.985a129.442,129.442,0,0,0,55.162-2.732l13.51-3.658s7.789-40.64,12.2-78.791c3.686-31.882-2.394-44.257-21.725-46.985Z" transform="translate(-427.827 1.853)" fill="#ef6c74"/><path d="M631.922,122.038c.595-3.084-.393-16.111-.393-16.111s-11.842-1.5-12.318-13.289.807-38.915.807-38.915L641.858,43.6l23.408,18.51L667.422,75.1l-5.431,15.431-2.427,29.5Z" transform="translate(-411.755 -42.043)" fill="#eebcc5"/><g transform="translate(227.589 27.931)"><path d="M628.881,55.759a1.19,1.19,0,1,0,1.647.345A1.19,1.19,0,0,0,628.881,55.759Z" transform="translate(-626.596 -53.467)" fill="#00143a"/><path d="M627.634,56.446c.19.2,1.323-.726,2.946-.778,1.623-.079,2.825.752,3,.538.086-.1-.107-.457-.633-.835a4.009,4.009,0,0,0-4.745.19C627.706,55.979,627.541,56.357,627.634,56.446Z" transform="translate(-627.61 -54.684)" fill="#00143a"/></g><g transform="translate(208.062 27.931)"><path d="M620.676,55.759a1.19,1.19,0,1,0,1.647.345A1.19,1.19,0,0,0,620.676,55.759Z" transform="translate(-618.391 -53.467)" fill="#00143a"/><path d="M619.429,56.446c.19.2,1.323-.726,2.946-.778,1.623-.079,2.825.752,3,.538.086-.1-.107-.457-.633-.835a4.009,4.009,0,0,0-4.745.19C619.5,55.979,619.336,56.357,619.429,56.446Z" transform="translate(-619.404 -54.684)" fill="#00143a"/></g><g transform="translate(216.543 29.65)"><path d="M627.061,69.549a12.8,12.8,0,0,1-2.673.038,2.685,2.685,0,0,1-.693-.079.966.966,0,0,1-.65-.576,2.579,2.579,0,0,1,.2-1.661c.357-1.054.738-2.178,1.138-3.356.821-2.375,1.594-4.515,2.178-6.054a12.937,12.937,0,0,1,1.057-2.456,12.873,12.873,0,0,1-.685,2.584c-.493,1.571-1.207,3.732-2.028,6.107-.412,1.173-.807,2.292-1.175,3.341a2.314,2.314,0,0,0-.255,1.335c.1.336.528.4.938.426A12.811,12.811,0,0,1,627.061,69.549Z" transform="translate(-622.968 -55.406)" fill="#00143a"/></g><g transform="translate(228.227 37.51)"><path d="M627.878,61.108c.014,1.342,2.058,2.349,4.56,2.458s4.6-.726,4.707-2.063-1.93-2.677-4.55-2.787S627.864,59.773,627.878,61.108Z" transform="translate(-627.878 -58.709)" fill="#e5b3bc"/></g><path d="M631.506,62.152c1.663-1.054-4.588,2.606-7.9,2.537a4.487,4.487,0,0,0,5.345,1.637C632.446,64.936,631.506,62.152,631.506,62.152Z" transform="translate(-405.544 -16.711)" fill="#f3f0eb"/><path d="M624.326,72.657a29.406,29.406,0,0,0,15.707-4.943s-3.715,8.567-15.509,7.837Z" transform="translate(-404.552 -8.773)" fill="#e5b3bc"/><path d="M635.267,130.247l-5.554-.328a51.055,51.055,0,0,1-9.334-.374,15.015,15.015,0,0,1-4.5-1.257,22.82,22.82,0,0,1-5.048-2.872c-1.3-1.19-3.4-.371-3.089,1.116s3.824,4.85,9.265,6.792-2.958,4.491-6,5.471-12.263,4.429-12.625,5.557c-.528,1.654,1.316,2.592,4.324,1.544,3.044-1.059,12.3-3.577,12.875-2.025.567,1.528-14.993,6.316-14.993,6.316s-3.536.512-2.934,2.32c1.085,3.265,17.151-2.982,18.662-3.613a.872.872,0,1,1,.581,1.644c-1.192.424-15.662,4.431-14.591,7.763.823,2.556,13.274-5.019,16.873-4.269s-10.128,4.817-9.236,7.232c.331.9.711,1.537,8.163-1.878,7.632-3.5,26.444-16.2,26.444-16.2l-9.6-13.053" transform="translate(-441.443 70.058)" fill="#eebcc5"/><g transform="translate(211.03 212.649)" opacity="0.35"><path d="M657.358,145.969c-.1.152-2.006-.961-5.157-2.606a106.5,106.5,0,0,0-25.938-9.617c-3.463-.807-5.635-1.207-5.612-1.387.019-.143,2.239-.038,5.778.566a78.1,78.1,0,0,1,26.178,9.707C655.685,144.482,657.439,145.848,657.358,145.969Z" transform="translate(-620.652 -132.302)" fill="#154593"/></g><g transform="translate(235.965 217.125)" opacity="0.35"><path d="M648.915,135.835c-.093.345-4.015-.643-8.917-.452-4.9.143-8.748,1.4-8.865,1.059-.136-.267,3.691-2.087,8.827-2.242C645.091,134,649.031,135.561,648.915,135.835Z" transform="translate(-631.13 -134.183)" fill="#154593"/></g><path d="M620.519,186.962s26.3-7.511,43.037-23.087c13.339-12.418,13.113-23.948,13.113-23.948l6.29-48.289Z" transform="translate(-409.805 24.239)" fill="#2b4c60" opacity="0.36"/><g transform="translate(105.03 232.792)" opacity="0.36"><path d="M723.518,167.579a4,4,0,0,1-.766-.131c-.521-.119-1.259-.283-2.22-.5-1.966-.466-4.829-1.142-8.51-2.013-7.389-1.749-18.087-4.258-31.354-7.137s-29.1-6.133-46.756-9.357c-8.827-1.613-18.106-3.225-27.744-4.793q-3.616-.575-7.294-1.164a28.217,28.217,0,0,0-7.318-.447,9.829,9.829,0,0,0-6.342,3.058,15.9,15.9,0,0,0-3.408,6.54,46.737,46.737,0,0,0-1.409,7.5q-.475,3.8-.945,7.549-.368,3.762-.728,7.463c-.25,2.468-.376,4.926-.569,7.358-.643,9.733-.961,19.146-.949,28.115-.007,17.937.876,34.086,1.8,47.625.942,13.541,1.892,24.488,2.525,32.056.3,3.77.543,6.7.7,8.715.069.985.119,1.74.157,2.27a3.625,3.625,0,0,1,.012.776,3.741,3.741,0,0,1-.133-.764q-.1-.792-.271-2.258c-.214-2.009-.526-4.933-.928-8.7-.773-7.556-1.851-18.494-2.9-32.037-1.033-13.544-2-29.71-2.054-47.687-.043-8.989.252-18.429.883-28.194.188-2.439.312-4.9.559-7.382s.481-4.974.723-7.489q.471-3.763.945-7.58a47.73,47.73,0,0,1,1.442-7.668,17.027,17.027,0,0,1,3.684-7.018,10.964,10.964,0,0,1,3.241-2.377,11.832,11.832,0,0,1,3.831-1.042,29.29,29.29,0,0,1,7.63.462l7.3,1.176c9.643,1.585,18.929,3.22,27.758,4.864,17.658,3.287,33.489,6.623,46.737,9.612s23.924,5.621,31.283,7.508c3.681.935,6.53,1.7,8.46,2.228l2.19.614A3.634,3.634,0,0,1,723.518,167.579Z" transform="translate(-576.11 -140.766)" fill="#154593"/></g><g transform="translate(117.218 241.98)" opacity="0.36"><path d="M586.815,149.763c-.219.24-2.32-1.318-4.693-3.482l-.857-.8.814-.826c1.766,1.975,2.951,3.6,2.742,3.791s-1.742-1.1-3.589-3l.814-.823c.288.255.576.514.873.781C585.292,147.571,587.036,149.52,586.815,149.763Z" transform="translate(-581.232 -144.627)" fill="#154593"/></g><g transform="translate(121.189 236.821)" opacity="0.36"><path d="M585.2,152.773c-.319.067-1.061-2.187-1.656-5.033s-.819-5.212-.5-5.278,1.061,2.187,1.656,5.036S585.52,152.706,585.2,152.773Z" transform="translate(-582.9 -142.459)" fill="#154593"/></g><g transform="translate(226.299 265.945)" opacity="0.23"><path d="M682.344,160.389c-.157.785-12.418-1.142-27.63-2.361-15.209-1.268-27.62-1.359-27.646-2.161-.043-.723,12.47-1.875,27.872-.593C670.343,156.51,682.5,159.68,682.344,160.389Z" transform="translate(-627.068 -154.697)" fill="#2b4c60"/></g><g transform="translate(274.432 143.432)" opacity="0.23"><path d="M649.768,107.4c-.124.1-.571-.05-.776-.816a2.81,2.81,0,0,1,1.273-2.73,3.286,3.286,0,0,1,2.239-.624,3.457,3.457,0,0,1,1.3.44,3.829,3.829,0,0,1,1.054.873,5.665,5.665,0,0,1-3.091,8.955,4.069,4.069,0,0,1-1.345.052,3.5,3.5,0,0,1-1.285-.412,3.75,3.75,0,0,1-1.49-1.635,2.972,2.972,0,0,1,.066-2.958c.452-.6.9-.624.995-.49.131.152,0,.474,0,.9a2.373,2.373,0,0,0,.614,1.547,2,2,0,0,0,.831.583,1.389,1.389,0,0,0,.454.043,1.879,1.879,0,0,0,.559-.1,3.436,3.436,0,0,0,1.956-2.085,3.365,3.365,0,0,0-.257-2.811,1.242,1.242,0,0,0-1.606-.6,2.1,2.1,0,0,0-1.192,1.047C649.9,106.941,649.939,107.293,649.768,107.4Z" transform="translate(-647.293 -103.217)" fill="#2b4c60"/></g><path d="M628.868,85.193l.925-10.47L646.9,71.566l5.133,11.19Z" transform="translate(-398.285 -3.459)" fill="#af4a54"/><path d="M625.365,73.453l6.741,1.27v10.47l-8.534-1.739,2.07-11.889" transform="translate(-405.59 -3.459)" fill="#af4a54"/><path d="M643.106,76.3A516.7,516.7,0,0,1,617.38,183.335" transform="translate(-414.136 3.078)" fill="none" stroke="#af4a54" stroke-miterlimit="10" stroke-width="0.05"/><path d="M618.043,92.988a135.425,135.425,0,0,1-4.031,32.663" transform="translate(-418.783 26.1)" fill="none" stroke="#af4a54" stroke-miterlimit="10" stroke-width="0.05"/><path d="M565.81,133.651l4.927-23.973,9.442-.6-5.234,25.154Z" transform="translate(-485.293 48.3)" fill="#af4a54"/><path d="M618.5,152.708l-9.656-25,9.007-3.331,8.139,23.937Z" transform="translate(-425.91 69.411)" fill="#af4a54"/><g transform="translate(0 51.444)"><path d="M531.748,127.482,681.4,64.179l77.9,2.99-1.1,60.107-91.02,74.042-51.07-2.213Z" transform="translate(-531.706 -64.179)" opacity="0.23" fill="url(#o)"/><path d="M531.977,91.18l26.861,78.492H680.464l-.9-4.042-49.181-1.521L607.729,91.138Z" transform="translate(-531.977 -27.896)" fill="#b4cce9"/><path d="M560.011,109.876c.8,3.215-.574,6.366-3.077,7.035s-5.181-1.395-5.985-4.61.576-6.368,3.077-7.037S559.209,106.661,560.011,109.876Z" transform="translate(-505.783 -8.578)" fill="#f3f0eb"/></g><g transform="translate(221.425 21.373)"><path d="M639.03,53.2a2.406,2.406,0,0,1,.536.262,7.362,7.362,0,0,1,1.4,1,9.268,9.268,0,0,1,3.01,5.471,9.417,9.417,0,0,1-.309,4.374,9.548,9.548,0,0,1-2.734,4.227,9.569,9.569,0,0,1-5.045,2.335,9.514,9.514,0,0,1-9.955-5.4,9.547,9.547,0,0,1-.792-5.5,9.516,9.516,0,0,1,2.056-4.6,9.369,9.369,0,0,1,3.5-2.644,9.267,9.267,0,0,1,6.228-.455,7.462,7.462,0,0,1,1.6.626,2.406,2.406,0,0,1,.512.307c-.028.062-.74-.376-2.163-.723a9.275,9.275,0,0,0-6.016.6,9.091,9.091,0,0,0-5.209,6.959,9.089,9.089,0,0,0,.778,5.2,9.014,9.014,0,0,0,9.391,5.1,9.1,9.1,0,0,0,4.781-2.178,9.091,9.091,0,0,0,3-8.16,9.292,9.292,0,0,0-2.773-5.374C639.749,53.616,638.995,53.256,639.03,53.2Z" transform="translate(-625.02 -51.928)" fill="#00143a"/></g><g transform="translate(199.26 20.699)"><path d="M625.57,51.7a2.35,2.35,0,0,1,.6,0,7.32,7.32,0,0,1,1.695.271A9.271,9.271,0,0,1,633,55.515a9.416,9.416,0,0,1,1.675,4.053,9.549,9.549,0,0,1-.562,5,9.535,9.535,0,0,1-3.472,4.341,9.51,9.51,0,0,1-11.321-.393,9.578,9.578,0,0,1-3.165-4.572,9.551,9.551,0,0,1-.212-5.029,9.4,9.4,0,0,1,7.323-7.116,7.481,7.481,0,0,1,1.709-.152,2.338,2.338,0,0,1,.595.048c0,.067-.828-.007-2.259.317a9.275,9.275,0,0,0-5.114,3.225,9.091,9.091,0,0,0-1.556,8.551,9.042,9.042,0,0,0,3.015,4.3,9.009,9.009,0,0,0,10.678.371,9.087,9.087,0,0,0,3.308-4.084,9.1,9.1,0,0,0-.961-8.639,9.3,9.3,0,0,0-4.879-3.572C626.4,51.748,625.563,51.764,625.57,51.7Z" transform="translate(-615.706 -51.645)" fill="#00143a"/></g><g transform="translate(239.893 31.734)"><path d="M632.78,56.437a41.826,41.826,0,0,1,9.612.336,41.813,41.813,0,0,1-9.612-.336Z" transform="translate(-632.78 -56.282)" fill="#00143a"/></g><path d="M660.992,93.475c6.335-6.859,6.89-16.94,7-26.278.052-4.488-.164-9.2-2.449-13.068-2.237-3.791-6.185-6.259-10.231-8-6.214-2.665-13.155-3.943-19.8-2.72S622.57,48.563,619.3,54.48c0,0,30.669-.609,32.692.585s8.339,5.633,7.827,11.095S657.77,79.7,657.77,79.7l4.95-.74s-.362-7.463,1.706-7.192S660.992,93.475,660.992,93.475Z" transform="translate(-411.487 -42.947)" fill="#00143a"/><path d="M637.41,64.414a2.078,2.078,0,0,0,2.068,1.385,4.262,4.262,0,0,0,2.439-1.007,7.173,7.173,0,0,0,2.879-4.66,4.92,4.92,0,0,0-2.2-4.829,3.77,3.77,0,0,0-4.959,1.09Z" transform="translate(-386.498 -26.575)" fill="#eebcc5"/><g transform="translate(240.206 103.879) rotate(8)"><path d="M0,0V1.3l1.4.62V.628Z" transform="translate(1.675 2.583)" fill="#fff"/><path d="M1.291,1.876l1.78.785V1.37L0,0V4.991H.026L3.071,6.352v-1.3l-1.78-.794Z" fill="#fff"/><g transform="translate(3.071 0)"><path d="M1.78,1.117v.541L0,2.452H0v1.3H0L3.045,2.391h.026V0L.873,1.51Z" transform="translate(0 2.6)" fill="#fff"/><path d="M3.071,1.867V0L0,1.37H0V2.661H0l1.78-.794v.55L0,3.211V4.5L3.071,2.391,5.131.969Z" fill="#fff"/></g></g><path d="M672.668,78.4s-5.014,70.528-11.811,77.879-51.635,39.964-51.635,39.964l8.765,22.851s61.7-35.017,68.641-53.122c8.386-21.88,9.9-55.88,10.145-70.421a19.85,19.85,0,0,0-7.228-15.959C684.434,75.531,678.789,75.262,672.668,78.4Z" transform="translate(-425.393 3.029)" fill="#ef6c74"/><g transform="translate(188.78 103.745)"><path d="M667.813,86.549c.169.007,0,1.592,0,4.526s-.25,7.209-.614,12.457a117,117,0,0,1-2.62,18.336,66,66,0,0,1-8.646,21.114,71.444,71.444,0,0,1-15.75,16.495c-5.5,4.31-10.711,7.756-15.014,10.721-8.672,5.838-13.61,9.981-13.86,9.712-.1-.117.985-1.33,3.158-3.317s5.483-4.672,9.681-7.818,9.284-6.749,14.6-11.08a73.123,73.123,0,0,0,15.1-16.069,67.091,67.091,0,0,0,8.5-20.3,135.828,135.828,0,0,0,3.094-17.96C666.573,93,667.423,86.527,667.813,86.549Z" transform="translate(-611.302 -86.549)" fill="#af4a54"/></g></g><g transform="translate(88.543 69.426)"><path d="M372.647,223.531,369.906,209H336.974l3.453,21.328,1.742.1c7.53.416,44.191,2.356,49.224.831C397.007,229.557,372.647,223.531,372.647,223.531Z" transform="translate(-269.015 266.863)" fill="#154593"/><path d="M334.94,97.642c-3.394,30.25,1.433,167.315,4.11,276.439l44.7-.585s-.531-204.11.84-223.619l1.035-47.082Z" transform="translate(-273.431 113.203)" fill="#062a63"/><g transform="translate(68.647 233.938)"><path d="M338.079,360.642c-.316,0-.816-55.928-.816-126.14,0-70.238.257-127.156.574-127.156s.574,56.918.574,127.156C338.41,304.714,338.4,360.642,338.079,360.642Z" transform="translate(-337.263 -107.346)" fill="#154593"/></g><g transform="translate(0 259.711)"><rect width="94.714" height="62.939" transform="translate(0 11.951) rotate(-7.249)" fill="#ef6c74"/><path d="M333.853,128.353l5.388,31.607,17.13-2.032-5.916-32.116Z" transform="translate(-273.321 -107.641)" fill="#fff"/><path d="M336.913,128.462l3.979,21.715,1.475-.5L338,128.462Z" transform="translate(-269.1 -103.983)" fill="#062a63"/></g><path d="M381.708,229.473l2.844-14.5-30.583-12.213-4.807,21.552,1.685.269c6.84,3.179,40.166,18.577,45.407,19.027C402.1,244.1,381.708,229.473,381.708,229.473Z" transform="translate(-252.198 258.239)" fill="#154593"/><path d="M369.619,172.7c-4.769-16.773-8.682-30.207-8.682-30.207l2.435-43.158,34.167,2.625s32.611,116.661,25.347,146.2c-8.708,35.416-34.253,121.694-34.253,121.694l-39.479-10.8s37.63-114.386,37.394-121.925c-.145-4.581-9.557-38.491-16.93-64.422" transform="translate(-252.208 115.54)" fill="#062a63"/><g transform="translate(194.099 123.805)"><path d="M389.987,93.184l1.642-5.628a50.02,50.02,0,0,0,2.953-9.4,14.365,14.365,0,0,0,.252-4.879,22.084,22.084,0,0,0-1.314-5.945c-.831-1.683.816-3.5,2.327-2.711s3.91,5.369,4.069,11.406,5.961-1.492,8.125-4.2,9.246-10.766,10.6-10.759c1.992.01,2.351,2.144.129,4.8-2.251,2.684-8.329,11.076-6.844,12.149,1.461,1.057,12.285-12.87,12.285-12.87s1.83-3.351,3.586-2.168c3.17,2.135-9.427,16.092-10.657,17.389-.857.9.714,2.128,1.58,1.109.895-1.047,10.474-14.141,13.72-12,2.492,1.642-10.255,11.575-10.731,15.4s8.9-8.515,11.214-6.849c.862.621,1.418,1.2-4.99,7.511-6.561,6.459-27.189,21.064-27.189,21.064L389.978,92.834" transform="translate(-389.978 -61.068)" fill="#eebcc5"/></g><g transform="translate(29.635 277.76)"><path d="M338.937,125.76l3.365,4.8a50.015,50.015,0,0,0,5.492,8.182,14.362,14.362,0,0,0,3.651,3.246,21.9,21.9,0,0,0,5.462,2.692c1.832.4,2.218,2.827.659,3.513s-6.633-.3-11.447-3.955-2.561,5.585-1.8,8.965,2.62,13.948,1.766,15c-1.252,1.549-3.144.493-3.822-2.9-.69-3.436-3.439-13.427-5.2-12.939-1.737.481,2.365,17.634,2.365,17.634s1.471,3.525-.552,4.155c-3.646,1.14-6.666-17.418-6.909-19.191-.169-1.233-2.106-.771-1.854.543.259,1.352,4.491,17.013.788,18.208-2.839.919-2.625-15.24-5.307-18s1.083,12.268-1.666,13.034c-1.023.283-1.828.355-2.744-8.589-.938-9.16.559-34.391.559-34.391l17.477.2" transform="translate(-320.87 -125.76)" fill="#eebcc5"/></g><g transform="translate(29.635 78.077)"><g clip-path="url(#p)"><path d="M485.377,106.041s-29.6,38.463-34.077,40-2.144-74.181-2.144-74.181c-5.076-26.711-34.838-26.711-34.838-26.711l-46.928-3.3s-17.008.735-21.9,16.771l-.1-.114s-.24,1.123-.666,3.182h0c-4.315,20.871-28.113,139.36-23.184,190.326l21.406-3.287s4.9-91.347,18.646-146.67l1.161,10.716c2.651,10.685,3.253,22.644-2.358,32.113-9.3,15.685-8.1,35.1-8.1,35.1l83.534,3.553s1.252,10.7.738-2.268c26.4,8.874,72.675-55.147,72.675-55.147Z" transform="translate(-320.87 -41.853)" fill="#fcd588"/><path d="M309.6,116.577h129" transform="translate(-336.428 61.252)" fill="none" stroke="#133c77" stroke-miterlimit="10" stroke-width="0.05" opacity="0.18"/><path d="M336.555,36.119" transform="translate(-299.228 -49.765)" fill="none" stroke="#133c77" stroke-miterlimit="10" stroke-width="0.05" opacity="0.36"/><path d="M355.3,37.173V210.257" transform="translate(-273.356 -48.311)" fill="none" stroke="#133c77" stroke-miterlimit="10" stroke-width="0.05" opacity="0.18"/><path d="M324.463,57.445V230.529" transform="translate(-315.913 -20.339)" fill="none" stroke="#133c77" stroke-miterlimit="10" stroke-width="0.05" opacity="0.18"/></g></g><g transform="translate(111.436 83.551)"><path d="M356.623,176.818a5.284,5.284,0,0,1-.157-1.345c-.052-1.028-.119-2.3-.2-3.862-.148-3.356-.293-8.213-.428-14.215-.271-12-.428-28.591-.478-46.906-.038-18.237-.074-34.736-.1-46.906-.007-5.864-.014-10.673-.019-14.215.019-1.561.033-2.839.043-3.867a5.372,5.372,0,0,1,.1-1.349,5.513,5.513,0,0,1,.155,1.345c.055,1.028.119,2.3.2,3.862.147,3.353.293,8.21.426,14.212.274,12,.428,28.593.478,46.916.04,18.229.076,34.726.1,46.9.007,5.861.012,10.673.017,14.215-.017,1.561-.031,2.839-.043,3.867A5.457,5.457,0,0,1,356.623,176.818Z" transform="translate(-355.243 -44.153)" fill="#edb758"/></g><g transform="translate(69.27 117.279)"><path d="M344.377,58.329c.343.152-1.7,5.293-3.539,11.83-1.871,6.533-2.837,11.978-3.208,11.925-.333-.033.071-5.638,1.971-12.275C341.473,63.165,344.075,58.184,344.377,58.329Z" transform="translate(-337.525 -58.326)" fill="#edb758"/></g><g transform="translate(143.702 116.192)"><path d="M369.848,57.869a23.791,23.791,0,0,1,.145,3.986c0,2.789,0,6.445,0,10.857-.019,9.162.021,21.823.157,35.8.152,13.881.29,26.435.4,35.819.017,4.41.031,8.068.043,10.857a23.951,23.951,0,0,1-.155,3.986,23.257,23.257,0,0,1-.347-3.974c-.117-2.787-.267-6.442-.452-10.85-.314-9.165-.633-21.83-.771-35.826s-.031-26.661.219-35.83c.121-4.584.267-8.294.414-10.854A23.3,23.3,0,0,1,369.848,57.869Z" transform="translate(-368.801 -57.869)" fill="#edb758"/></g><g transform="translate(72.635)"><g transform="translate(11.99 10.274)"><path d="M376.9,86.12c-.4-2.872,1.145-14.829,1.145-14.829s10.988-.807,12-11.642,1.152-35.9,1.152-35.9l-19.631-10.39L349.1,29.276l-5.124,11.882,6.733,28.267-.029,14.246Z" transform="translate(-343.977 -13.362)" fill="#eebcc5"/><g transform="translate(40.373 25.322)"><path d="M364.817,25.784a1.391,1.391,0,1,1-1.345-1.433A1.387,1.387,0,0,1,364.817,25.784Z" transform="translate(-359.431 -23.521)" fill="#00143a"/><path d="M366.423,25.78c-.186.174-1.183-.733-2.677-.859-1.492-.152-2.639.554-2.789.35-.074-.093.121-.416.626-.74a3.695,3.695,0,0,1,4.362.409C366.38,25.346,366.511,25.7,366.423,25.78Z" transform="translate(-360.942 -24.002)" fill="#00143a"/></g><g transform="translate(23.786 24.789)"><path d="M357.317,24.428a1.391,1.391,0,1,1-1.944.3A1.394,1.394,0,0,1,357.317,24.428Z" transform="translate(-352.409 -23.251)" fill="#00143a"/><path d="M359.455,25.555c-.186.174-1.185-.731-2.677-.859-1.492-.15-2.642.554-2.792.35-.074-.093.124-.416.626-.738a3.693,3.693,0,0,1,4.365.407C359.41,25.124,359.544,25.479,359.455,25.555Z" transform="translate(-353.972 -23.778)" fill="#00143a"/></g><g transform="translate(34.26 26.318)"><path d="M358.373,37.479a10.736,10.736,0,0,1,2.458-.217c.381-.007.764-.048.859-.336a2.121,2.121,0,0,0-.171-1.223q-.439-1.485-.926-3.134c-.64-2.228-1.19-4.255-1.559-5.728a10.537,10.537,0,0,1-.486-2.42,10.555,10.555,0,0,1,.873,2.308c.471,1.445,1.083,3.453,1.723,5.683q.464,1.653.881,3.146a2.4,2.4,0,0,1,.1,1.559.911.911,0,0,1-.645.512,2.4,2.4,0,0,1-.647.038A10.3,10.3,0,0,1,358.373,37.479Z" transform="translate(-358.373 -24.421)" fill="#00143a"/></g><g transform="translate(19.186 35.257)"><path d="M360.6,30.612c-.081,1.237-2.013,2.063-4.324,2.042s-4.208-.892-4.236-2.13,1.911-2.373,4.329-2.346S360.678,29.384,360.6,30.612Z" transform="translate(-352.039 -28.177)" fill="#e5b3bc"/></g><path d="M356.419,30.547c-1.48-1.054,4.1,2.625,7.154,2.723a4.14,4.14,0,0,1-5,1.247C355.417,33.065,356.419,30.547,356.419,30.547Z" transform="translate(-327.147 10.088)" fill="#f3f0eb"/><path d="M366.544,40.788a27.117,27.117,0,0,1-14.229-5.319s3,8.077,13.908,7.977Z" transform="translate(-332.472 17.142)" fill="#e5b3bc"/></g><path d="M351.329,59.026c2.937,6.6,4.753,16.211,4.753,16.211,1.618,3,2.158-6.459,2.158-6.459s1.387-9.093.131-12.639c0,0-5.535,1.79-6.783-8.139-.616-4.91,6.8-7.261,8.812-1.323l4.624.428s.376-18.548,11.033-15.131c0,0,7.727,4.772,12.335,1.851s4.276-3.929,4.276-3.929,2.216,4.879,8.158,1.675,6.725-8.917,4.667-11.649c-1.192-1.58-2.346-3.337-4.293-3.689a5.706,5.706,0,0,0-5.309,1.954c1.456-2.135.426-5.326-1.737-6.74a8.271,8.271,0,0,0-7.451-.355,24.517,24.517,0,0,0-6.423,4.281,9.438,9.438,0,0,0-18.213,1.5c-2.23-2.777-6.514-3.413-9.729-1.873a11.447,11.447,0,0,0-5.945,8.4,19.193,19.193,0,0,0,1.473,10.447c-2.482-1.433-5.931-.4-7.6,1.921a8.263,8.263,0,0,0-.464,8.184,13.225,13.225,0,0,0,6.069,5.871,5.241,5.241,0,0,0,4.962,9.043" transform="translate(-338.939 -9.045)" fill="#2c373f"/><g transform="translate(15.883 36.193)"><path d="M349.963,31.47c-.043-.029-.155.121-.421.264a1.627,1.627,0,0,1-1.2.1c-1-.3-1.916-1.8-2.061-3.467a5.326,5.326,0,0,1,.309-2.335,1.869,1.869,0,0,1,1.138-1.309.823.823,0,0,1,.978.383c.14.252.093.44.143.452.026.021.188-.167.09-.545a1.039,1.039,0,0,0-.4-.557,1.217,1.217,0,0,0-.907-.181,2.271,2.271,0,0,0-1.6,1.535,5.478,5.478,0,0,0-.4,2.613c.171,1.861,1.233,3.546,2.594,3.853a1.729,1.729,0,0,0,1.459-.336C349.959,31.694,349.994,31.485,349.963,31.47Z" transform="translate(-345.613 -24.253)" fill="#e5b3bc"/></g></g><g transform="translate(107.937 266.632)"><path d="M357.921,121.084a1.892,1.892,0,0,1,.288.447c.179.331.426.785.743,1.371.64,1.207,1.568,3,2.746,5.314,2.346,4.636,5.726,11.356,9.572,19.824a227.347,227.347,0,0,1,11.492,30.583,152.644,152.644,0,0,1,4.165,18.872,122.565,122.565,0,0,1,1.337,20.714c-.033,3.565-.424,7.068-.716,10.524q-.36,2.574-.716,5.112c-.231,1.692-.609,3.346-.9,5a150.533,150.533,0,0,1-5.019,18.665,240.852,240.852,0,0,1-12.77,30.071c-4.167,8.315-7.787,14.907-10.319,19.445-1.259,2.273-2.263,4.022-2.949,5.2-.338.574-.6,1.016-.792,1.34a1.977,1.977,0,0,1-.3.438,1.78,1.78,0,0,1,.2-.495c.169-.336.4-.8.695-1.392.643-1.237,1.571-3.022,2.758-5.309,2.408-4.6,5.919-11.247,9.983-19.588a251.78,251.78,0,0,0,12.5-30.05,152.03,152.03,0,0,0,4.917-18.546c.288-1.64.662-3.279.885-4.955s.466-3.365.7-5.067c.286-3.422.673-6.892.7-10.419a122.972,122.972,0,0,0-1.3-20.526,154.011,154.011,0,0,0-4.067-18.748,236.846,236.846,0,0,0-11.216-30.54c-3.743-8.491-7.009-15.262-9.231-19.957-1.1-2.33-1.959-4.148-2.554-5.409-.274-.607-.488-1.078-.64-1.421A1.71,1.71,0,0,1,357.921,121.084Z" transform="translate(-353.773 -121.084)" fill="#154593"/></g><path d="M348.39,39.455l-3.209,7.756,22.132,6.535.8-10.419Z" transform="translate(-257.692 32.915)" fill="#edb758"/><path d="M357,52.967a46.682,46.682,0,0,1-.723-11.214l4.179-1.333,6.142,6.742Z" transform="translate(-242.489 34.248)" fill="#edb758"/><path d="M361.171,62.54V71.7l6.306,3.288L373.149,71V61.366H361.171" transform="translate(-235.628 63.148)" fill="#edb758"/><path d="M393.664,68.825l-6.327,7.617L411.751,95.9l5.778-6.982Z" transform="translate(-199.523 73.441)" fill="#edb758"/><path d="M393.377,72.785a2.151,2.151,0,1,1-2.151-2.151A2.152,2.152,0,0,1,393.377,72.785Z" transform="translate(-197.127 75.936)" fill="#133c77" opacity="0.18"/><path d="M321.539,136.905l21.406-3.285v-8.343L320.87,129.21Z" transform="translate(-291.235 151.335)" fill="#edb758"/><path d="M331.774,128.7a2.153,2.153,0,1,1-2.154-2.151A2.151,2.151,0,0,1,331.774,128.7Z" transform="translate(-282.13 153.094)" fill="#133c77" opacity="0.18"/><g transform="translate(74.18 171.62)"><path d="M355.34,83.826c-.1.352-3.586-.357-7.9-.983-4.317-.645-7.858-.969-7.851-1.337,0-.343,3.624-.593,8.037.064S355.44,83.5,355.34,83.826Z" transform="translate(-339.588 -81.16)" fill="#edb758"/></g><g transform="translate(74.46 169.851)"><path d="M349.666,81.663c-.033.352-2.289.436-5.038.181s-4.955-.745-4.921-1.1,2.287-.436,5.038-.183S349.7,81.308,349.666,81.663Z" transform="translate(-339.706 -80.416)" fill="#edb758"/></g><g transform="translate(155.73 181.81)"><path d="M373.952,91.873c-.319-.138.155-1.9,1.395-3.722s2.692-2.92,2.939-2.675-.709,1.671-1.873,3.4S374.283,92.023,373.952,91.873Z" transform="translate(-373.855 -85.442)" fill="#edb758"/></g><g transform="translate(158.98 182.182)"><path d="M375.663,91.9c-.355-.026-.531-1.459-.4-3.2s.533-3.129.888-3.1.531,1.459.395,3.2S376.018,91.926,375.663,91.9Z" transform="translate(-375.221 -85.598)" fill="#edb758"/></g><path d="M334.526,97.642l-.451,5.372,85.273,4.932-1-3.648Z" transform="translate(-273.016 113.202)" fill="#d3702d"/><path d="M339.073,97.875v7.091l10.478.953.427-6.824Z" transform="translate(-266.119 113.524)" fill="#062a63"/><path d="M362.194,99.348v7.091l10.478.953.427-6.824Z" transform="translate(-234.216 115.557)" fill="#062a63"/></g><g transform="translate(885.686 263.987)"><path d="M665.051,144.839c-3.565-12.268-5.229-29.484-6.164-42.225a17.378,17.378,0,0,1,.588-7.461c.892-2.351,3.065-4.4,5.578-4.353a6.334,6.334,0,0,1,5.05,3.348,18.71,18.71,0,0,1,1.9,6q3.459,17.727,6.921,35.457a43.212,43.212,0,0,1,8.584-11.292c1.547-1.456,3.789-2.872,5.647-1.842,1.675.931,1.87,3.225,1.8,5.14a94.96,94.96,0,0,1-2.218,17.223" transform="translate(-658.756 -90.8)" fill="#5ecc95"/><path d="M659.7,112.993s-6.08,24.062,18.5,25.169c22.613,1.019,17.175-25.169,17.175-25.169Z" transform="translate(-658.376 -60.177)" fill="#154593"/></g><g transform="translate(373.363 155.597)"><g transform="translate(0 0)"><g transform="translate(58.975 257.308)"><g transform="translate(0 14.492)"><path d="M512.532,159.942,553.628,301h4.7l-31.533-141.54Z" transform="translate(-407.169 -159.465)" fill="#ad9380"/><path d="M499.331,160.483,468.259,297.509h5.512l41.588-137.067Z" transform="translate(-468.259 -158.117)" fill="#ad9380"/><path d="M496.722,159.465l4.788,141.172h6.565l2.881-140.627Z" transform="translate(-428.984 -159.465)" fill="#ad9380"/><path d="M484.811,185.6l93.843-2.941.621,9.717-101.507,3.893Z" transform="translate(-455.137 -127.458)" fill="#ad9380"/><path d="M482.15,160.483l-1.439,6.347h15.529l1.938-6.388Z" transform="translate(-451.078 -158.117)" fill="#00143a" opacity="0.15"/><path d="M496.748,160.993l.233,6.869h13.771l.168-8.169Z" transform="translate(-428.948 -159.149)" fill="#00143a" opacity="0.15"/><path d="M502.144,183.37l.343,10.105h-5.974l-2.322-9.856,9.534-.249" transform="translate(-432.477 -126.48)" fill="#00143a" opacity="0.15"/><path d="M502.221,183.33v10.04l4.529-.174,1.314-10.049Z" transform="translate(-421.397 -126.789)" fill="#00143a" opacity="0.15"/><path d="M512.532,159.942,514,164.983h14.021l-1.23-5.519Z" transform="translate(-407.169 -159.465)" fill="#00143a" opacity="0.15"/></g><path d="M480.151,170.19H592.99c7.137,0,22.456-18.791-60.659-16.644C454.283,155.562,480.151,170.19,480.151,170.19Z" transform="translate(-457.521 -153.375)" fill="#1f3443"/></g><g transform="translate(88.423)"><path d="M501.007,104.069a27.909,27.909,0,0,1-11.326-.593c-3.639-1.116-7.009-3.608-8.42-7.144s-.421-8.1,2.772-10.169c1.514-.983,3.539-1.528,4.243-3.189.785-1.856-.569-3.841-1.449-5.652A12.627,12.627,0,0,1,504.5,60.866a17.052,17.052,0,0,1,33.922-.59c.293,2.442.093,5.064,1.333,7.189,1.411,2.42,4.3,3.522,6.259,5.528,3.815,3.912,3.3,10.3,1.559,15.483s-4.491,10.238-4.329,15.7" transform="translate(-480.633 -45.254)" fill="#6e5395"/><path d="M503.638,127.984c.431-2.937-1.054-15.2-1.054-15.2s-11.249-.916-12.2-12.028-.892-36.785-.892-36.785l20.2-10.485L530.066,70l.455,55.685Z" transform="translate(-468.41 -33.891)" fill="#eebcc5"/><g transform="translate(22.325 45.416)"><path d="M490.621,66.577a1.424,1.424,0,1,0,1.388-1.459A1.423,1.423,0,0,0,490.621,66.577Z" transform="translate(-489.177 -63.262)" fill="#00143a"/><path d="M490.04,66.135c.188.181,1.221-.74,2.751-.859,1.528-.143,2.7.59,2.856.381.076-.093-.124-.428-.635-.762a3.79,3.79,0,0,0-4.474.383C490.09,65.692,489.95,66.056,490.04,66.135Z" transform="translate(-490.014 -64.338)" fill="#00143a"/></g><g transform="translate(39.322 45.005)"><path d="M497.555,66.409a1.425,1.425,0,1,0,1.39-1.459A1.423,1.423,0,0,0,497.555,66.409Z" transform="translate(-496.606 -63.082)" fill="#00143a"/><path d="M497.182,65.962c.188.181,1.218-.74,2.751-.859,1.528-.143,2.7.59,2.853.381.079-.093-.121-.428-.633-.762a3.788,3.788,0,0,0-4.474.383C497.232,65.519,497.092,65.883,497.182,65.962Z" transform="translate(-497.156 -64.165)" fill="#00143a"/></g><g transform="translate(30.159 46.506)"><path d="M497.278,78.176a9.547,9.547,0,0,1-2.523.2,2.587,2.587,0,0,1-.669-.043.974.974,0,0,1-.678-.545,2.494,2.494,0,0,1,.109-1.621q.443-1.535.926-3.217c1.349-4.555,2.584-8.206,2.761-8.153s-.778,3.786-2.125,8.341q-.51,1.678-.976,3.2a2.181,2.181,0,0,0-.19,1.23c.081.274.457.326.85.336A9.682,9.682,0,0,1,497.278,78.176Z" transform="translate(-493.306 -64.796)" fill="#00143a"/></g><g transform="translate(39.201 55.728) rotate(-17)"><path d="M0,2.458c.071,1.268,2.044,2.132,4.41,2.128s4.319-.878,4.358-2.147S6.832-.007,4.355,0-.069,1.2,0,2.458Z" fill="#e5b3bc"/></g><path d="M501.58,70.947c.107-.129-4.424,2.73-7.551,2.806a4.241,4.241,0,0,0,5.117,1.318C502.384,73.61,501.58,70.947,501.58,70.947Z" transform="translate(-462.149 -9.808)" fill="#f3f0eb"/><path d="M494.993,81.5a27.8,27.8,0,0,0,14.622-5.338s-3.144,8.251-14.315,8.06Z" transform="translate(-460.819 -2.605)" fill="#e5b3bc"/><path d="M487.381,69.415c3.5,3.253,8.969,3.708,13.448,2.051s8.077-5.1,10.995-8.879a16.309,16.309,0,0,0,14.969,4.236q1.2,15.2,2.408,30.409a11.72,11.72,0,0,0,5.4-.957c1.3-7.018,1.552-13.651,2.853-20.669.474-2.546.93-5.269-.088-7.651-1.092-2.549-3.608-4.122-5.845-5.757-2.78-2.035-5.317-4.391-8.144-6.364a19.385,19.385,0,0,0-9.467-3.822c-3.5-.255-6.925.9-10.243,2.042-3.772,1.3-7.637,2.644-10.712,5.19s-5.236,6.585-4.431,10.495" transform="translate(-471.322 -35.976)" fill="#6e5395"/><path d="M506.541,65.287a10.692,10.692,0,0,1,3.563-.947,3.627,3.627,0,0,1,3.213,1.487,3.519,3.519,0,0,1,.319,2.668,4.993,4.993,0,0,1-7.009,3.332" transform="translate(-444.885 -18.921)" fill="#eebcc5"/><g transform="translate(44.098 43.976)"><path d="M500.865,63.733c.183-.024.3.764-.312,1.406s-1.4.564-1.39.381c-.012-.188.493-.381.911-.838C500.51,64.243,500.679,63.729,500.865,63.733Z" transform="translate(-499.163 -63.733)" fill="#00143a"/></g><g transform="translate(59.945 50.82)"><path d="M514.1,67.278a14.674,14.674,0,0,1,1.823.99c1.149.662,2.849,1.533,4.826,2.82l.174.114-.081.2c-.581,1.416-1.34,2.956-2.194,4.593q-.643,1.228-1.33,2.532a18.888,18.888,0,0,1-1.571,2.634l-.164.219-.238-.1-1.085-.474c-3.089-1.254-5.79-2.9-8.175-4.105l-.262-.133.129-.259c1.409-2.83,2.363-5.319,3.108-7.035a15.455,15.455,0,0,1,1.275-2.663,22.137,22.137,0,0,1-.954,2.792c-.65,1.749-1.526,4.277-2.9,7.163l-.133-.39c2.449,1.183,5.117,2.782,8.18,4.024l1.085.476-.4.114a19.2,19.2,0,0,0,1.542-2.558c.464-.866.919-1.709,1.357-2.523.873-1.621,1.652-3.129,2.259-4.5l.093.317c-1.906-1.314-3.579-2.258-4.686-3A8.4,8.4,0,0,1,514.1,67.278Z" transform="translate(-505.822 -66.609)" fill="#ad813a"/></g></g><g transform="translate(41.398 219.795)"><path d="M553.789,138.044s-91.969,37.66-89.139,64.869,11.744,125.621,11.744,125.621h18.823l3.367-149.276,61.625,1.587Z" transform="translate(-464.586 -138.044)" fill="#e5b3bc"/><path d="M553.789,138.044s-91.969,37.66-89.139,64.869,11.744,125.621,11.744,125.621h18.823l3.367-149.276,61.625,1.587Z" transform="translate(-412.435 -138.044)" fill="#e5b3bc"/><path d="M481.559,139.028l.9,40.033h12.506l16.521-38.8S486.761,136.777,481.559,139.028Z" transform="translate(-432.329 -136.703)" fill="#00143a" opacity="0.15"/></g><path d="M568.155,127.331l27.08-5.49s-8.977-40.347-40.162-40.347c-29.893,0-31.685,1.287-31.685,1.287s-33.924,1.89-48.974,31.637l26.152,19.11,6.4-3.862s2.085,42.082-1.506,53.534c-4.065,12.956-10.666,28.632-10.666,28.632l97.427,3.486-24.065-87.987a78.5,78.5,0,0,0,26.547-6.064" transform="translate(-400.791 4.749)" fill="#fce8cf"/><path d="M494.506,101.5c.338,2.811-1.7,5.316-3.779,7.237s-4.45,3.851-5.131,6.6a8.927,8.927,0,0,0,.688,5.554,15,15,0,0,0,11.092,8.755" transform="translate(-385.628 32.36)" fill="#4cbbdd"/><line y1="2.72" x2="1.039" transform="translate(0 180.592)" fill="none"/><path d="M505.686,96.033s-41.059,41.164-48.891,50.378c-6.68,7.856-2.323,22.689,3.272,23.329s96.094-.595,96.094-.595l-1.2-18.51s-58.61.264-60.333-.816,33.9-37.092,33.9-37.092Z" transform="translate(-429.766 24.811)" fill="#eebcc5"/><path d="M496.085,118.977s19.381,1.3,22.608,18.822l-21.409-.312Z" transform="translate(-370.889 56.47)" fill="#f6ba99"/><path d="M576.727,98.443s13.2,37.9,14.712,42.368,9.253,23.367-5.457,24.95-93.677,0-93.677,0l-5.876-19.1s76.325-.2,75.937-4.272-11.592-38.225-11.592-38.225Z" transform="translate(-384.211 28.137)" fill="#eebcc5"/><path d="M456.21,94.987l28.365,78.57,130.567-.055-.907-3.839-49.584-3.626L541.129,93.78Z" transform="translate(-425.909 21.702)" fill="#062a63"/><path d="M486.836,114.536c.516,2.908-1.076,5.623-3.558,6.064s-4.912-1.559-5.428-4.467,1.076-5.623,3.558-6.064S486.32,111.628,486.836,114.536Z" transform="translate(-396.183 44.095)" fill="#fff"/><path d="M495.466,82.612s-2.478,32.908,9.105,32.613,18.013-33.253,18.013-33.253A82.707,82.707,0,0,0,495.466,82.612Z" transform="translate(-372.05 4.27)" fill="#eebcc5"/><path d="M512.409,96.539a156,156,0,0,1,5.04,16.99" transform="translate(-348.365 25.51)" fill="none" stroke="#c6a88b" stroke-miterlimit="10" stroke-width="0.05"/><path d="M495.632,82.916a62.708,62.708,0,0,0,.7,20.909,18.369,18.369,0,0,0,2.575,6.913,7.717,7.717,0,0,0,6.188,3.548c3.948-.071,6.666-3.884,8.525-7.368a115.8,115.8,0,0,0,9.922-25.488" transform="translate(-372.288 4.663)" fill="none" stroke="#c6a88b" stroke-miterlimit="10" stroke-width="0.05"/><path d="M513.135,102.925a57.825,57.825,0,0,0,26.744-6.49" transform="translate(-347.363 25.366)" fill="none" stroke="#c6a88b" stroke-miterlimit="10" stroke-width="0.05"/><path d="M500.739,106.881a17.638,17.638,0,0,0,25.99.945" transform="translate(-364.467 39.78)" fill="none" stroke="#c6a88b" stroke-miterlimit="10" stroke-width="0.05"/><path d="M518.512,267.677l2.854-80.909a82.881,82.881,0,0,0,8.509-.162c17.254-1.073,56.619-8.033,55.492-48.609,0,0-86.8-5.6-93.22,0-17.408,15.2-.351,128.839-.351,128.839" transform="translate(-392.372 79.279)" fill="#ef6c74"/><path d="M473.178,265.317h28.253l2.7-82.187,27.689,3.506,29.529-46.449s-66.837-14.7-95.066,7c-2.247,1.725-4.062,7.827-4.2,10.657Z" transform="translate(-426.408 79.023)" fill="#ef6c74"/><path d="M483.712,186.8c.5-8.632-1.583-16.462-1.742-23.361s-.02-13.36,4.326-18.721c3.572-4.412,9.038-6.959,14.6-8.07s11.3-.928,16.973-.735" transform="translate(-391.866 79.63)" fill="none" stroke="#a84e59" stroke-miterlimit="10" stroke-width="0.05"/><path d="M477.012,161.1q-1.16-4.955-2.318-9.9" transform="translate(-400.404 100.932)" fill="none" stroke="#a84e59" stroke-miterlimit="10" stroke-width="0.05"/><path d="M475.9,164.272a46.114,46.114,0,0,0,.276-14.412" transform="translate(-398.737 99.083)" fill="none" stroke="#a84e59" stroke-miterlimit="10" stroke-width="0.05"/><path d="M503.251,165.9q-1.8-6.872-3.6-13.743" transform="translate(-374.207 101.337)" fill="none" stroke="#a84e59" stroke-miterlimit="10" stroke-width="0.05"/><path d="M500.968,165.941a49.4,49.4,0,0,0,.752-13.793" transform="translate(-372.385 101.325)" fill="none" stroke="#a84e59" stroke-miterlimit="10" stroke-width="0.05"/><g transform="translate(151.155 122.716)"><g transform="translate(0 0)"><path d="M19.2,29.6v1.3l1.4.62V30.228Z" transform="translate(-17.525 -27.017)" fill="#fff"/><path d="M1.291,1.876l1.78.785V1.37L0,0V4.991H.026L3.071,6.352v-1.3l-1.78-.794Z" fill="#fff"/></g><g transform="translate(3.071 0)"><path d="M36.98,30.917v.541l-1.78.794h0v1.3h0l3.045-1.361h.026V29.8l-2.2,1.51Z" transform="translate(-35.2 -27.2)" fill="#fff"/><path d="M38.271,1.867V0L35.2,1.37h0V2.661h0l1.78-.794v.55l-1.78.794V4.5l3.071-2.112L40.331.969Z" transform="translate(-35.2)" fill="#fff"/></g></g></g><path d="M483.747,211.286s-35.907,7.318-30.367,8.984,49.8.293,49.8.293l.244-9.346Z" transform="translate(-431.206 191.739)" fill="#154593"/><path d="M483.747,211.286s-35.907,7.318-30.367,8.984,49.8.293,49.8.293l.244-9.346Z" transform="translate(-379.055 191.739)" fill="#154593"/></g><g transform="translate(269.765 342.002)"><g transform="translate(0)"><rect width="679.535" height="14.126" fill="#ad9380"/><path d="M422.289,129.517,388.565,341.6l16.862.309L463.3,129.517Z" transform="translate(-388.201 -115.392)" fill="#ad9380"/><path d="M695.922,132.324l19.651,218.817H699.8L657.391,141.412l-2.218-15.621,40.749,6.533" transform="translate(-47.779 -120.533)" fill="#ad9380"/><path d="M655.7,129.517l1.567,9.76,38.879-1.447-.746-8.313Z" transform="translate(-47.049 -115.392)" fill="#00143a" opacity="0.15"/><path d="M403.657,129.517l-1.589,9.994,40.179-1.115,2.419-8.878Z" transform="translate(-369.569 -115.392)" fill="#00143a" opacity="0.15"/></g></g><path d="M408.842,147.636v-16.92l8.525-1.88-8.525-5.267v-16H499.76v9.586l5.136-.021c-.842.954,1.656,2.1.559,2.506-1.842.678-6.264,1.737-6.264,1.737l1.138,6.666-5.114,1.147,6.818,4.788,1.138,12.6-94.329,1.942" transform="translate(-117.905 196.326)" fill="#fce8cf"/><g transform="translate(330.35 137.286)"><g transform="translate(0 0)"><path d="M115.125,39.91H8a8,8,0,0,1-8-8V8A8,8,0,0,1,8,0H133.561a8,8,0,0,1,8,8V31.91a8,8,0,0,1-8,8h-6.694V51.65Z" transform="translate(0 0)" fill="#6c63ff"/></g><text transform="translate(17.377 24.371)" fill="#fff" font-size="15" font-family="ChalkboardSE-Bold, Chalkboard SE" font-weight="700"><tspan x="0" y="0">Welcome Back</tspan></text></g><g transform="translate(814.241 99.119)"><g transform="translate(0 0)"><path d="M8,51.108a8,8,0,0,1-8-8V19.618a8,8,0,0,1,8-8H50.669L62.286,0V11.618h.8a8,8,0,0,1,8,8v23.49a8,8,0,0,1-8,8Z" transform="translate(71.083 51.108) rotate(180)" fill="#2d1e56"/></g><text transform="translate(21.278 24.053)" fill="#fdfdfe" font-size="15" font-family="ChalkboardSE-Bold, Chalkboard SE" font-weight="700"><tspan x="0" y="0">Hiii</tspan></text></g><g transform="translate(181.052 0)"><path d="M27.45,47.826H8a8,8,0,0,1-8-8V8A8,8,0,0,1,8,0H44.174a8,8,0,0,1,8,8V39.827a8,8,0,0,1-8,8H41.521V61.9Z" transform="translate(0 0)" fill="#2d1e56"/><text transform="translate(15.14 31.15)" fill="#fff" font-size="22" font-family="ChalkboardSE-Bold, Chalkboard SE" font-weight="700"><tspan x="0" y="0">Hi</tspan></text></g></g></g></svg>