<svg xmlns="http://www.w3.org/2000/svg" xmlns:xlink="http://www.w3.org/1999/xlink" width="916.927" height="992.61" viewBox="0 0 916.927 992.61"><defs><linearGradient id="a" x1="1.059" y1="-2.168" x2="-0.576" y2="5.634" gradientUnits="objectBoundingBox"><stop offset="0" stop-color="#4a50c2" stop-opacity="0.02"/><stop offset="1" stop-color="#444bcc" stop-opacity="0.639"/></linearGradient><linearGradient id="b" x1="-0.059" y1="-2.394" x2="1.575" y2="6.068" xlink:href="#a"/><linearGradient id="c" x1="0.5" x2="0.5" y2="1" gradientUnits="objectBoundingBox"><stop offset="0" stop-color="#9fe9b1"/><stop offset="1" stop-color="#d8f4e3"/></linearGradient><clipPath id="d"><path d="M94.571,99.262a30.972,30.972,0,1,0,14.236-41.424A30.971,30.971,0,0,0,94.571,99.262Z" transform="translate(-91.422 -54.688)" fill="none"/></clipPath></defs><g transform="translate(-127.532 -85.523)"><g transform="matrix(-0.358, 0.934, -0.934, -0.358, 1044.459, 326.787)"><g transform="translate(0 0)"><path d="M329.8,685.628c48.189,6.2,96.794,7.124,145.285,8.983,22.233.852,44.03-.173,64.556,7.8,19.219,7.469,34.564,22.459,54.395,28.885,15.39,4.985,31.992,4.809,48.067,2.981,67.989-7.736,131.995-45.6,171.515-101.463,36.195-51.163,51.307-116.627,41.827-178.523-5.751-37.542-23.028-72.552-27.169-110.379-4.377-39.989,10.9-74.853,20.548-112.881a289.663,289.663,0,0,0,8.7-81.335c-.558-15.753-2.537-31.9-9.99-45.787C827.3,66.182,776.253,59.064,733.65,63.317a398.721,398.721,0,0,0-151.739,47.15C545.278,130.7,509,160.138,466.954,168.12c-47.4,9-84.072-23.486-126.735-38.3C244.228,96.477,128.333,161.968,86.014,249.073,33.776,356.6,39.722,532.509,137.5,612.31c53.286,43.488,121.95,64.042,190.139,73.037Q328.721,685.491,329.8,685.628Z" transform="translate(-53.409 -62.227)" fill="rgba(111,68,255,0.05)"/></g></g><g transform="translate(545.674 301.46)"><path d="M26.6,46.337H8a8,8,0,0,1-8-8V8A8,8,0,0,1,8,0H42.55a8,8,0,0,1,8,8V38.338a8,8,0,0,1-8,8H40.228V59.97Z" transform="translate(0 0)" fill="#2d1e56"/><text transform="translate(16.442 29.186)" fill="#fff" font-size="22" font-family="ChalkboardSE-Bold, Chalkboard SE" font-weight="700"><tspan x="0" y="0">!!</tspan></text></g><g transform="translate(268.5 361.216)"><g transform="translate(-156 -423)"><path d="M570.123,373.926c0,5.528-32.082,10.01-71.659,10.01s-71.659-4.482-71.659-10.01,32.082-10.01,71.659-10.01S570.123,368.4,570.123,373.926Z" transform="translate(-296.806 452.817)" opacity="0.5" fill="url(#a)"/><g transform="translate(142.288 495.767)"><path d="M437.316,277.4s-22.24,98.223,12.971,164.937L485.5,509.058S494.764,342.268,437.316,277.4Z" transform="translate(-430.387 -253.314)" fill="#1bc18e"/><path d="M433.794,382.418c2.138,12.045,4.88,24.193,10.84,34.875s15.59,19.852,27.48,22.731c5.391,1.307,11.005,1.287,16.547,1.139,6.084-.161,12.44-.549,17.686-3.637,6.832-4.025,10.418-11.794,13.194-19.224a224.561,224.561,0,0,0,10.641-38.777c1.369-7.628,2.258-15.9-1.3-22.776-4.821-9.324-16.122-13.074-26.482-14.763-17.213-2.807-40.915-4.245-57.411,2.766C430.589,350.871,431.457,369.268,433.794,382.418Z" transform="translate(-425.362 -101.905)" fill="#fff"/><path d="M463.857,354.163c13.658.8,28.462-1.294,37.061-5.926,1.719-.927,3.25-2.117,2.436-3.25-.961-1.342-4.6-1.891-7.769-2.22-16.42-1.7-34.6-2.461-50.678.268C421.36,347.025,451.359,353.432,463.857,354.163Z" transform="translate(-416.384 -98.099)" fill="#524f63"/><path d="M443.806,270.384s-11.122,187.174,14.824,255.744C458.631,526.128,475.308,359.338,443.806,270.384Z" transform="translate(-403.519 -270.384)" fill="#7cf9c5"/><path d="M451,495.509h6.019c8.86-37.055,35.356-157.079,21.348-213.1,0,0-44.477,157.521-33.355,192.733C447.726,484.381,449.641,490.894,451,495.509Z" transform="translate(-399.166 -241.134)" fill="#1bc18e"/></g><path d="M362.483,388.438c0,8.224,112.642,14.888,251.593,14.888s251.593-6.664,251.593-14.888S753.027,373.55,614.076,373.55,362.483,380.216,362.483,388.438Z" transform="translate(-153.194 468.539)" opacity="0.5" fill="url(#b)"/></g><g transform="translate(70)"><line y2="230.129" transform="translate(195.22 204.872)" fill="none" stroke="#2a272d" stroke-miterlimit="10" stroke-width="1.988"/><line y2="230.129" transform="translate(28.771 204.872)" fill="none" stroke="#2a272d" stroke-miterlimit="10" stroke-width="1.988"/><path d="M75.156,265.709S43.228,258.466,38.4,279.251C34.254,297.1,77.695,296.4,77.695,296.4l95.518.585s35.986,4.148,53.775-37.355S261.9,109.438,261.9,109.438s2.566-14.955-9.881-17.127c-14.643-2.555-17.52,29.073-17.52,29.073s-22.136,134.171-54.264,140.721c-4.943,1.008-8.891,4.763-13.938,4.7Z" transform="translate(218.498 10.238)" fill="url(#c)"/><g transform="translate(97.285)"><g transform="translate(58.21 84.979)"><path d="M190.466,117.347,160.3,115.276a6.991,6.991,0,0,0-6.211,2.962l-16.87,25.5,14.345.672,8.091-12.444s23.308,5.826,31.92,0Z" transform="translate(-137.216 -34.731)" fill="#e5b3bc"/><g transform="translate(50.7)"><path d="M204.774,85.788l-40.312,74.885-83.752,2.67v27.549l88.455,3.866a33.636,33.636,0,0,0,29.341-14.772l40.26-72.249Z" transform="translate(-80.71 -85.788)" fill="#efc375"/><path d="M135.127,114.36v27.547l9.363.41V114.063Z" transform="translate(-135.126 -36.804)" fill="#f7e5da"/></g></g><g transform="translate(73.29 381.989)"><path d="M151.055,197.04l-4.742,33.118-23.826-1.481,3.429-34.191Z" transform="translate(-71.534 -194.485)" fill="#eebcc5"/><path d="M201.9,210.709a2.438,2.438,0,0,0-3.713-1.243,19.2,19.2,0,0,1-13.884,3.219c-6.9-.877-9.339-4.552-10.2-7.151a2.475,2.475,0,0,0-3.246-1.588l-42.943,16.846a10.553,10.553,0,0,0-5.823,5.61h0a3.69,3.69,0,0,0,3.328,5.159l72.735,1.071a4.994,4.994,0,0,0,5.066-5.183l-.525-14.039a2.432,2.432,0,0,0-.126-.686Z" transform="translate(-121.785 -178.388)" fill="#1f252a"/></g><g transform="translate(158.595)"><path d="M102.1,83.442,95.264,94.413c-.434,1.044-.631,3.563,1.271,4.492l2.661,1.921,5.692-8.7Z" transform="translate(-35.493 -4.873)" fill="#ffeee3"/><path d="M127.56,130.421l2.148-1.047a14.323,14.323,0,0,0,6.582-19.149L113.225,63.012,87.617,75.521,114.288,128.4C117.146,134.255,121.71,133.282,127.56,130.421Z" transform="translate(-48.246 -40.267)" fill="#eebcc5"/><path d="M94.571,99.262a30.972,30.972,0,1,0,14.236-41.424A30.971,30.971,0,0,0,94.571,99.262Z" transform="translate(-74.278 -54.688)" fill="#eebcc5"/><path d="M133.85,111.551h0a14.708,14.708,0,0,0,6.76-19.671L127.593,65.233,96.236,80.551l10.607,21.718A20.194,20.194,0,0,0,133.85,111.551Z" transform="translate(-76.158 -36.419)" fill="#eebcc5"/><path d="M109.728,73.131l-1.7,11.924a2.439,2.439,0,0,0,3.618,2.26l7.7-2.109Z" transform="translate(-85.588 -22.736)" fill="#eebcc5"/><g transform="translate(17.144)"><g clip-path="url(#d)"><path d="M126.188,105.525s-10.848.7-12.624-16.037c0,0-18.851,12.034-26.527,7.249,0,0-2.361-47.381,36.8-45.708s42.208,43.94,42.208,43.94L144.066,114.8Z" transform="translate(-92.034 -61.101)" fill="#2d1e56"/></g></g><path d="M97.122,78.966a8.511,8.511,0,1,0,3.913-11.383A8.51,8.51,0,0,0,97.122,78.966Z" transform="translate(-47.389 -33.848)" fill="#eebcc5"/><path d="M104.7,68.9l5.826,13.583S97.736,92.734,91.287,79.533l9.288-2.612Z" transform="translate(-31.057 -30.073)" fill="#2d1e56"/><path d="M144.891,79.157s-25.559,19.736-35.62,3.208c-8.033-13.2.9-21.748,13.81-19.605,5.582.926,8.339-2.855,12.7-5.809Z" transform="translate(-106.217 -50.769)" fill="#2d1e56"/><path d="M60.35,112.479s.585-12.047,4.41-16.236,24.2-15.725,24.2-15.725,29.319,8.5,47.323,42c14.031,26.1,27.221,92.149,27.221,92.149L78.895,226.925C71.618,177.577,57.937,155.087,60.35,112.479Z" transform="translate(1.272 -9.939)" fill="#ffd686"/><path d="M110.25,79.781l3.511,1.59a1.925,1.925,0,0,1,.484,3.191L91.891,104.444a1.923,1.923,0,0,1-2.943-.475l-2.522-4.356a1.923,1.923,0,0,1,.462-2.465l21.365-17.116A1.931,1.931,0,0,1,110.25,79.781Z" transform="translate(-21.43 -11.511)" fill="#ffeee3"/></g><g transform="translate(68.932 90.562)"><path d="M185.651,118.99l-30.169-2.074a7.006,7.006,0,0,0-6.211,2.962l-15.466,22.007,14.444,1.853,6.588-10.135s23.305,5.826,31.92,0Z" transform="translate(-133.806 -37.47)" fill="#eebcc5"/><g transform="translate(49.296)"><path d="M206.316,87.831l-45.523,76.806L74.44,167.006v24.832l93.165,4.071A25.213,25.213,0,0,0,189.6,184.838l50.714-75.055Z" transform="translate(-74.44 -87.831)" fill="#ffd686"/><path d="M131.717,116.807v24.831l9.364.41v-25.24Z" transform="translate(-131.716 -37.631)" fill="#ffeee3"/></g></g><path d="M261.4,129.611,95,153.73a27.926,27.926,0,0,0-23.794,24.98L58.813,320.44l37.169,2.415,17.859-122.84,104.5,2.719a46.483,46.483,0,0,0,45.987-53.255Z" transform="translate(61.964 75.112)" fill="#9092ec"/><g transform="translate(0 115.319)"><rect width="87.772" height="5.694" transform="translate(28.405 78.662)" fill="#b4cce9"/><path d="M194.446,181.248,166.041,98.312l5.967-1.421,27.837,79.658Z" transform="translate(-166.041 -96.892)" fill="#b4cce9"/></g><path d="M95.411,91.1a17.54,17.54,0,0,0,7.908-14.507s4.918,10.646-5.118,20.04Z" transform="translate(122.272 -16.746)" fill="#e5b3bc"/></g><g transform="translate(279.815 236.819)"><path d="M214.949,344.9a2.965,2.965,0,0,1-2.866-2.232l-43.443-171.3a31.935,31.935,0,0,0-61.677-.88C91.776,224.016,56.4,340.8,56.046,341.973a2.961,2.961,0,1,1-5.667-1.716c.353-1.175,35.719-117.908,50.886-171.385a37.858,37.858,0,0,1,73.115,1.038l43.443,171.3a2.962,2.962,0,0,1-2.142,3.6A3.069,3.069,0,0,1,214.949,344.9Z" transform="translate(-50.251 -141.357)" fill="#f4f9fc"/></g><line y1="38.629" x2="26.102" transform="translate(330.668 148.938)" stroke-width="0.785" stroke="#efc375" stroke-linecap="round" stroke-linejoin="round" fill="none"/><rect width="227.38" height="10.233" transform="translate(0 199.676)" fill="#e0e4ed"/><line x1="166.45" transform="translate(28.771 234.799)" fill="none" stroke="#2a272d" stroke-miterlimit="10" stroke-width="1.988"/></g></g></g></svg>