<svg xmlns="http://www.w3.org/2000/svg" xmlns:xlink="http://www.w3.org/1999/xlink" width="903.847" height="740.034" viewBox="0 0 903.847 740.034"><defs><filter id="a" x="146.379" y="287.918" width="562.05" height="47.282" filterUnits="userSpaceOnUse"><feOffset input="SourceAlpha"/><feGaussianBlur stdDeviation="1" result="b"/><feFlood flood-color="#537097" flood-opacity="0.059"/><feComposite operator="in" in2="b"/><feComposite in="SourceGraphic"/></filter><clipPath id="c"><path d="M2.633,11.584A1.58,1.58,0,0,1,1.053,10V3.16H.527a.527.527,0,0,1,0-1.053H2.633V1.58A1.579,1.579,0,0,1,4.213,0H6.319A1.58,1.58,0,0,1,7.9,1.58v.527H10A.527.527,0,0,1,10,3.16H9.478V10a1.579,1.579,0,0,1-1.58,1.58ZM2.106,10a.527.527,0,0,0,.527.527H7.9A.527.527,0,0,0,8.425,10V3.16H2.106ZM3.686,1.58v.527H6.845V1.58a.527.527,0,0,0-.527-.527H4.213A.527.527,0,0,0,3.686,1.58ZM5.792,8.425V5.266a.527.527,0,1,1,1.053,0v3.16a.527.527,0,1,1-1.053,0Zm-2.106,0V5.266a.527.527,0,1,1,1.053,0v3.16a.527.527,0,0,1-1.053,0Z"/></clipPath><filter id="d" x="110.994" y="384.706" width="632.82" height="52.537" filterUnits="userSpaceOnUse"><feOffset input="SourceAlpha"/><feGaussianBlur stdDeviation="1" result="e"/><feFlood flood-color="#537097" flood-opacity="0.059"/><feComposite operator="in" in2="e"/><feComposite in="SourceGraphic"/></filter><linearGradient id="f" y1="1" x2="1" gradientUnits="objectBoundingBox"><stop offset="0" stop-color="#d481ff"/><stop offset="1" stop-color="#06f0e0"/></linearGradient><filter id="g" x="146.379" y="337.625" width="562.05" height="47.282" filterUnits="userSpaceOnUse"><feOffset input="SourceAlpha"/><feGaussianBlur stdDeviation="1" result="h"/><feFlood flood-color="#537097" flood-opacity="0.059"/><feComposite operator="in" in2="h"/><feComposite in="SourceGraphic"/></filter><filter id="j" x="146.379" y="437.04" width="562.05" height="47.282" filterUnits="userSpaceOnUse"><feOffset input="SourceAlpha"/><feGaussianBlur stdDeviation="1" result="k"/><feFlood flood-color="#537097" flood-opacity="0.059"/><feComposite operator="in" in2="k"/><feComposite in="SourceGraphic"/></filter><filter id="m" x="146.379" y="486.748" width="562.05" height="47.282" filterUnits="userSpaceOnUse"><feOffset input="SourceAlpha"/><feGaussianBlur stdDeviation="1" result="n"/><feFlood flood-color="#537097" flood-opacity="0.059"/><feComposite operator="in" in2="n"/><feComposite in="SourceGraphic"/></filter><filter id="p" x="146.379" y="536.455" width="562.05" height="47.282" filterUnits="userSpaceOnUse"><feOffset input="SourceAlpha"/><feGaussianBlur stdDeviation="1" result="q"/><feFlood flood-color="#537097" flood-opacity="0.059"/><feComposite operator="in" in2="q"/><feComposite in="SourceGraphic"/></filter><filter id="s" x="223.118" y="57.64" width="601.592" height="271.091" filterUnits="userSpaceOnUse"><feOffset dy="-12" input="SourceAlpha"/><feGaussianBlur stdDeviation="10" result="t"/><feFlood flood-color="#537097" flood-opacity="0.059"/><feComposite operator="in" in2="t"/><feComposite in="SourceGraphic"/></filter></defs><g transform="translate(-911.18 -156.869)"><g transform="translate(965.094 180.8)"><g transform="translate(0 0)"><path d="M329.8,685.628c48.189,6.2,96.794,7.124,145.285,8.983,22.233.852,44.03-.173,64.556,7.8,19.219,7.469,34.564,22.459,54.395,28.885,15.39,4.985,31.992,4.809,48.067,2.981,67.989-7.736,131.995-45.6,171.515-101.463,36.195-51.163,51.307-116.627,41.827-178.523-5.751-37.542-23.028-72.552-27.169-110.379-4.377-39.989,10.9-74.853,20.548-112.881a289.663,289.663,0,0,0,8.7-81.335c-.558-15.753-2.537-31.9-9.99-45.787C827.3,66.182,776.253,59.064,733.65,63.317a398.721,398.721,0,0,0-151.739,47.15C545.278,130.7,509,160.138,466.954,168.12c-47.4,9-84.072-23.486-126.735-38.3C244.228,96.477,128.333,161.968,86.014,249.073,33.776,356.6,39.722,532.509,137.5,612.31c53.286,43.488,121.95,64.042,190.139,73.037Q328.721,685.491,329.8,685.628Z" transform="translate(-53.409 -62.227)" fill="rgba(111,68,255,0.05)"/></g></g><g transform="translate(1025.174 447.787)"><g transform="translate(35.385 0)"><g transform="matrix(1, 0, 0, 1, -149.38, -290.92)" filter="url(#a)"><rect width="556.05" height="41.282" rx="6" transform="translate(149.38 290.92)" fill="#fff"/></g><circle cx="8.425" cy="8.425" r="8.425" transform="translate(19.377 12.637)" fill="#41dcc7"/><rect width="0.842" height="32.857" transform="translate(113.122 4.212)" fill="#eeeff3"/><rect width="0.842" height="32.857" transform="translate(310.107 4.212)" fill="#eeeff3"/><rect width="0.842" height="16.007" transform="translate(508.027 12.637)" fill="#eeeff3"/><g transform="translate(516.452 14.322)"><rect width="12.637" height="12.637" fill="rgba(0,0,0,0)"/><path d="M2.633,11.584A1.58,1.58,0,0,1,1.053,10V3.16H.527a.527.527,0,0,1,0-1.053H2.633V1.58A1.579,1.579,0,0,1,4.213,0H6.319A1.58,1.58,0,0,1,7.9,1.58v.527H10A.527.527,0,0,1,10,3.16H9.478V10a1.579,1.579,0,0,1-1.58,1.58ZM2.106,10a.527.527,0,0,0,.527.527H7.9A.527.527,0,0,0,8.425,10V3.16H2.106ZM3.686,1.58v.527H6.845V1.58a.527.527,0,0,0-.527-.527H4.213A.527.527,0,0,0,3.686,1.58ZM5.792,8.425V5.266a.527.527,0,1,1,1.053,0v3.16a.527.527,0,1,1-1.053,0Zm-2.106,0V5.266a.527.527,0,1,1,1.053,0v3.16a.527.527,0,0,1-1.053,0Z" transform="translate(1.053 0.527)"/><g transform="translate(1.053 0.527)" clip-path="url(#c)"><g transform="translate(-1.053 -0.527)"><rect width="12.637" height="12.637" fill="rgba(0,0,0,0)"/><rect width="12.637" height="12.637" fill="#537097"/></g></g></g><rect width="103.627" height="8.425" rx="3" transform="translate(135.642 13.48)" fill="#eaf1f5"/><rect width="39.597" height="5.055" rx="2.527" transform="translate(135.642 28.645)" fill="#eaf1f5"/><rect width="33.7" height="5.055" rx="2.527" transform="translate(389.235 18.535)" fill="#eaf1f5"/><rect width="33.7" height="5.055" rx="2.527" transform="translate(437.257 18.535)" fill="#eaf1f5"/><rect width="41.282" height="6.74" rx="3" transform="translate(330.26 17.692)" fill="#eaf1f5"/><rect width="32.015" height="5.055" rx="2.527" transform="translate(58.132 18.535)" fill="#eaf1f5"/></g><g transform="translate(0 96.788)"><g transform="matrix(1, 0, 0, 1, -113.99, -387.71)" filter="url(#d)"><rect width="626.82" height="46.537" rx="6" transform="translate(113.99 387.71)" fill="#fff"/></g><ellipse cx="9.497" cy="9.497" rx="9.497" ry="9.497" transform="translate(21.844 14.246)" fill="#41dcc7"/><rect width="0.95" height="37.039" transform="translate(127.519 4.749)" fill="#eeeff3"/><rect width="116.816" height="9.497" rx="3" transform="translate(152.906 15.196)" fill="#eaf1f5"/><rect width="44.637" height="5.698" rx="2.849" transform="translate(152.906 32.291)" fill="#eaf1f5"/><rect width="36.09" height="5.698" rx="2.849" transform="translate(65.531 20.894)" fill="#eaf1f5"/><rect width="314.36" height="3.799" rx="1.899" transform="translate(283.968 21.844)" fill="#eeeff3"/><path d="M61.9,0H199.61a1.9,1.9,0,1,1,0,3.8H61.9a1.9,1.9,0,1,1,0-3.8Z" transform="translate(224.648 21.844)" fill="url(#f)"/><text transform="translate(579.975 16.296)" fill="#537097" font-size="4" font-family="SFProDisplay-Regular, SF Pro Display" letter-spacing="0.006em"><tspan x="0" y="0">72%</tspan></text></g><g transform="translate(35.385 49.707)"><g transform="matrix(1, 0, 0, 1, -149.38, -340.63)" filter="url(#g)"><rect width="556.05" height="41.282" rx="6" transform="translate(149.38 340.63)" fill="#fff"/></g><circle cx="8.425" cy="8.425" r="8.425" transform="translate(19.377 12.637)" fill="#41dcc7"/><rect width="0.842" height="32.857" transform="translate(113.122 4.212)" fill="#eeeff3"/><rect width="0.842" height="32.857" transform="translate(310.107 4.212)" fill="#eeeff3"/><rect width="0.842" height="16.007" transform="translate(508.027 12.637)" fill="#eeeff3"/><g transform="translate(516.452 14.322)"><rect width="12.637" height="12.637" fill="rgba(0,0,0,0)"/><path d="M2.633,11.584A1.58,1.58,0,0,1,1.053,10V3.16H.527a.527.527,0,0,1,0-1.053H2.633V1.58A1.579,1.579,0,0,1,4.213,0H6.319A1.58,1.58,0,0,1,7.9,1.58v.527H10A.527.527,0,0,1,10,3.16H9.478V10a1.579,1.579,0,0,1-1.58,1.58ZM2.106,10a.527.527,0,0,0,.527.527H7.9A.527.527,0,0,0,8.425,10V3.16H2.106ZM3.686,1.58v.527H6.845V1.58a.527.527,0,0,0-.527-.527H4.213A.527.527,0,0,0,3.686,1.58ZM5.792,8.425V5.266a.527.527,0,1,1,1.053,0v3.16a.527.527,0,1,1-1.053,0Zm-2.106,0V5.266a.527.527,0,1,1,1.053,0v3.16a.527.527,0,0,1-1.053,0Z" transform="translate(1.053 0.527)"/><g transform="translate(1.053 0.527)" clip-path="url(#c)"><g transform="translate(-1.053 -0.527)"><rect width="12.637" height="12.637" fill="rgba(0,0,0,0)"/><rect width="12.637" height="12.637" fill="#537097"/></g></g></g><rect width="103.627" height="8.425" rx="3" transform="translate(135.642 13.48)" fill="#eaf1f5"/><rect width="39.597" height="5.055" rx="2.527" transform="translate(135.642 28.645)" fill="#eaf1f5"/><rect width="33.7" height="5.055" rx="2.527" transform="translate(389.235 18.535)" fill="#eaf1f5"/><rect width="33.7" height="5.055" rx="2.527" transform="translate(437.257 18.535)" fill="#eaf1f5"/><rect width="41.282" height="6.74" rx="3" transform="translate(330.26 17.692)" fill="#eaf1f5"/><rect width="32.015" height="5.055" rx="2.527" transform="translate(58.132 18.535)" fill="#eaf1f5"/></g><g transform="translate(35.385 149.122)" opacity="0.8"><g transform="matrix(1, 0, 0, 1, -149.38, -440.04)" filter="url(#j)"><rect width="556.05" height="41.282" rx="6" transform="translate(149.38 440.04)" fill="#fff"/></g><circle cx="8.425" cy="8.425" r="8.425" transform="translate(19.377 12.637)" fill="#41dcc7"/><rect width="0.842" height="32.857" transform="translate(113.122 4.212)" fill="#eeeff3"/><rect width="0.842" height="32.857" transform="translate(310.107 4.212)" fill="#eeeff3"/><rect width="0.842" height="16.007" transform="translate(508.027 12.637)" fill="#eeeff3"/><g transform="translate(516.452 14.322)"><rect width="12.637" height="12.637" fill="rgba(0,0,0,0)"/><path d="M2.633,11.584A1.58,1.58,0,0,1,1.053,10V3.16H.527a.527.527,0,0,1,0-1.053H2.633V1.58A1.579,1.579,0,0,1,4.213,0H6.319A1.58,1.58,0,0,1,7.9,1.58v.527H10A.527.527,0,0,1,10,3.16H9.478V10a1.579,1.579,0,0,1-1.58,1.58ZM2.106,10a.527.527,0,0,0,.527.527H7.9A.527.527,0,0,0,8.425,10V3.16H2.106ZM3.686,1.58v.527H6.845V1.58a.527.527,0,0,0-.527-.527H4.213A.527.527,0,0,0,3.686,1.58ZM5.792,8.425V5.266a.527.527,0,1,1,1.053,0v3.16a.527.527,0,1,1-1.053,0Zm-2.106,0V5.266a.527.527,0,1,1,1.053,0v3.16a.527.527,0,0,1-1.053,0Z" transform="translate(1.053 0.527)"/><g transform="translate(1.053 0.527)" clip-path="url(#c)"><g transform="translate(-1.053 -0.527)"><rect width="12.637" height="12.637" fill="rgba(0,0,0,0)"/><rect width="12.637" height="12.637" fill="#537097"/></g></g></g><rect width="103.627" height="8.425" rx="3" transform="translate(135.642 13.48)" fill="#eaf1f5"/><rect width="39.597" height="5.055" rx="2.527" transform="translate(135.642 28.645)" fill="#eaf1f5"/><rect width="33.7" height="5.055" rx="2.527" transform="translate(389.235 18.535)" fill="#eaf1f5"/><rect width="33.7" height="5.055" rx="2.527" transform="translate(437.257 18.535)" fill="#eaf1f5"/><rect width="41.282" height="6.74" rx="3" transform="translate(330.26 17.692)" fill="#eaf1f5"/><rect width="32.015" height="5.055" rx="2.527" transform="translate(58.132 18.535)" fill="#eaf1f5"/></g><g transform="translate(35.385 198.83)" opacity="0.5"><g transform="matrix(1, 0, 0, 1, -149.38, -489.75)" filter="url(#m)"><rect width="556.05" height="41.282" rx="6" transform="translate(149.38 489.75)" fill="#fff"/></g><circle cx="8.425" cy="8.425" r="8.425" transform="translate(19.377 12.637)" fill="#41dcc7"/><rect width="0.842" height="32.857" transform="translate(113.122 4.212)" fill="#eeeff3"/><rect width="0.842" height="32.857" transform="translate(310.107 4.212)" fill="#eeeff3"/><rect width="0.842" height="16.007" transform="translate(508.027 12.637)" fill="#eeeff3"/><g transform="translate(516.452 14.322)"><rect width="12.637" height="12.637" fill="rgba(0,0,0,0)"/><path d="M2.633,11.584A1.58,1.58,0,0,1,1.053,10V3.16H.527a.527.527,0,0,1,0-1.053H2.633V1.58A1.579,1.579,0,0,1,4.213,0H6.319A1.58,1.58,0,0,1,7.9,1.58v.527H10A.527.527,0,0,1,10,3.16H9.478V10a1.579,1.579,0,0,1-1.58,1.58ZM2.106,10a.527.527,0,0,0,.527.527H7.9A.527.527,0,0,0,8.425,10V3.16H2.106ZM3.686,1.58v.527H6.845V1.58a.527.527,0,0,0-.527-.527H4.213A.527.527,0,0,0,3.686,1.58ZM5.792,8.425V5.266a.527.527,0,1,1,1.053,0v3.16a.527.527,0,1,1-1.053,0Zm-2.106,0V5.266a.527.527,0,1,1,1.053,0v3.16a.527.527,0,0,1-1.053,0Z" transform="translate(1.053 0.527)"/><g transform="translate(1.053 0.527)" clip-path="url(#c)"><g transform="translate(-1.053 -0.527)"><rect width="12.637" height="12.637" fill="rgba(0,0,0,0)"/><rect width="12.637" height="12.637" fill="#537097"/></g></g></g><rect width="103.627" height="8.425" rx="3" transform="translate(135.642 13.48)" fill="#eaf1f5"/><rect width="39.597" height="5.055" rx="2.527" transform="translate(135.642 28.645)" fill="#eaf1f5"/><rect width="33.7" height="5.055" rx="2.527" transform="translate(389.235 18.535)" fill="#eaf1f5"/><rect width="33.7" height="5.055" rx="2.527" transform="translate(437.257 18.535)" fill="#eaf1f5"/><rect width="41.282" height="6.74" rx="3" transform="translate(330.26 17.692)" fill="#eaf1f5"/><rect width="32.015" height="5.055" rx="2.527" transform="translate(58.132 18.535)" fill="#eaf1f5"/></g><g transform="translate(35.385 248.537)" opacity="0.2"><g transform="matrix(1, 0, 0, 1, -149.38, -539.46)" filter="url(#p)"><rect width="556.05" height="41.282" rx="6" transform="translate(149.38 539.46)" fill="#fff"/></g><circle cx="8.425" cy="8.425" r="8.425" transform="translate(19.377 12.637)" fill="#41dcc7"/><rect width="0.842" height="32.857" transform="translate(113.122 4.212)" fill="#eeeff3"/><rect width="0.842" height="32.857" transform="translate(310.107 4.212)" fill="#eeeff3"/><rect width="0.842" height="16.007" transform="translate(508.027 12.637)" fill="#eeeff3"/><g transform="translate(516.452 14.322)"><rect width="12.637" height="12.637" fill="rgba(0,0,0,0)"/><path d="M2.633,11.584A1.58,1.58,0,0,1,1.053,10V3.16H.527a.527.527,0,0,1,0-1.053H2.633V1.58A1.579,1.579,0,0,1,4.213,0H6.319A1.58,1.58,0,0,1,7.9,1.58v.527H10A.527.527,0,0,1,10,3.16H9.478V10a1.579,1.579,0,0,1-1.58,1.58ZM2.106,10a.527.527,0,0,0,.527.527H7.9A.527.527,0,0,0,8.425,10V3.16H2.106ZM3.686,1.58v.527H6.845V1.58a.527.527,0,0,0-.527-.527H4.213A.527.527,0,0,0,3.686,1.58ZM5.792,8.425V5.266a.527.527,0,1,1,1.053,0v3.16a.527.527,0,1,1-1.053,0Zm-2.106,0V5.266a.527.527,0,1,1,1.053,0v3.16a.527.527,0,0,1-1.053,0Z" transform="translate(1.053 0.527)"/><g transform="translate(1.053 0.527)" clip-path="url(#c)"><g transform="translate(-1.053 -0.527)"><rect width="12.637" height="12.637" fill="rgba(0,0,0,0)"/><rect width="12.637" height="12.637" fill="#537097"/></g></g></g><rect width="103.627" height="8.425" rx="3" transform="translate(135.642 13.48)" fill="#eaf1f5"/><rect width="39.597" height="5.055" rx="2.527" transform="translate(135.642 28.645)" fill="#eaf1f5"/><rect width="33.7" height="5.055" rx="2.527" transform="translate(389.235 18.535)" fill="#eaf1f5"/><rect width="33.7" height="5.055" rx="2.527" transform="translate(437.257 18.535)" fill="#eaf1f5"/><rect width="41.282" height="6.74" rx="3" transform="translate(330.26 17.692)" fill="#eaf1f5"/><rect width="32.015" height="5.055" rx="2.527" transform="translate(58.132 18.535)" fill="#eaf1f5"/></g></g><g transform="translate(911.18 156.869)"><g transform="translate(285.098 323.186)"><g transform="translate(434.38 114.18)"><g transform="translate(0 76.634)"><path d="M381.39,302.713c.151-.088,1.09,1.156,2.48,3.6a63.448,63.448,0,0,1,4.748,10.907c3.307,9.513,5.382,23.556,4.151,38.872s-4.76,28.752-7.491,38.32c-2.794,9.574-4.85,15.38-5.2,15.284-.391-.108,1-6.12,3.289-15.785,2.233-9.664,5.423-23.034,6.615-38.033s-.507-28.642-3.252-38.075C384.06,308.315,380.95,302.944,381.39,302.713Z" transform="translate(-380.008 -302.709)" fill="#fff"/></g><g transform="translate(10.793)"><path d="M385.328,265.106c.175-.08,1.31,2,3.208,5.84s4.559,9.429,7.711,16.407c6.25,13.953,14.662,33.49,20.764,56.17a213.477,213.477,0,0,1,6.079,32.5,160.853,160.853,0,0,1,.628,27.008,122.366,122.366,0,0,1-2.409,18.039c-.923,4.2-1.657,6.462-1.82,6.423-.518-.1,1.767-9.346,2.252-24.556.6-15.18-1.39-36.268-7.436-58.693s-14.1-41.978-19.875-56.106c-2.908-7.069-5.26-12.792-6.888-16.747C385.95,267.417,385.151,265.186,385.328,265.106Z" transform="translate(-385.304 -265.104)" fill="#fff"/></g></g><g transform="translate(71.765 204.115)"><path d="M226.324,309.25c.324.35-2.851,3.379-6.971,9-1.023,1.412-2.134,2.959-3.173,4.724-1.135,1.7-2.123,3.65-3.226,5.661a77.028,77.028,0,0,0-8.2,28.493c-.137,2.289-.336,4.465-.277,6.509-.059,2.048.059,3.947.173,5.686.5,6.953,1.579,11.206,1.119,11.331-.277.1-2.056-4.011-3.087-11.125a49.207,49.207,0,0,1-.526-5.845,64.989,64.989,0,0,1,.026-6.745,69.578,69.578,0,0,1,8.5-29.512,64.9,64.9,0,0,1,3.564-5.726,49.435,49.435,0,0,1,3.554-4.671C222.45,311.553,226.14,309.02,226.324,309.25Z" transform="translate(-202.069 -309.236)" fill="#fff"/><g transform="translate(16.869 24.494)"><path d="M225.185,321.312c.234.375-1.535,1.728-3.845,4.316a34.854,34.854,0,0,0-3.615,4.854,33.715,33.715,0,0,0-4.775,13.849,34.815,34.815,0,0,0-.147,6.05c.224,3.462.783,5.62.367,5.769-.3.126-1.559-1.846-2.329-5.508a25.822,25.822,0,0,1-.463-6.527,29.217,29.217,0,0,1,5.19-15.048,25.784,25.784,0,0,1,4.388-4.856C222.817,321.8,225.026,321.026,225.185,321.312Z" transform="translate(-210.347 -321.255)" fill="#fff"/></g></g><g transform="translate(0 0)"><path d="M166.875,209.084c.147-.126,1.4,1.107,3.55,3.46a53.571,53.571,0,0,1,3.746,4.434c1.38,1.791,3.038,3.78,4.6,6.171q1.207,1.77,2.523,3.7c.868,1.294,1.655,2.712,2.531,4.145,1.793,2.845,3.4,6.057,5.152,9.407a154.289,154.289,0,0,1,8.971,22.873,154.483,154.483,0,0,1,4.9,24.075c.353,3.762.748,7.332.789,10.695.045,1.679.153,3.3.128,4.856s-.071,3.053-.1,4.479c-.008,2.855-.318,5.423-.5,7.679a54.585,54.585,0,0,1-.734,5.757c-.528,3.144-.909,4.86-1.1,4.834-.5-.065.434-7.033.357-18.292q-.037-2.112-.077-4.416c-.033-1.535-.194-3.126-.287-4.777-.139-3.3-.615-6.806-1.029-10.5a172.007,172.007,0,0,0-5.027-23.6,172.089,172.089,0,0,0-8.608-22.545c-1.657-3.322-3.161-6.519-4.84-9.37-.819-1.435-1.549-2.859-2.356-4.163s-1.592-2.556-2.335-3.748C171.063,214.749,166.5,209.408,166.875,209.084Z" transform="translate(-166.853 -209.075)" fill="#fff"/><g transform="translate(31.698 13.116)"><path d="M182.439,215.521c.236-.212,3.452,2.8,7.542,8.6a82.842,82.842,0,0,1,6.338,10.715,88.7,88.7,0,0,1,8.618,29.174,82.729,82.729,0,0,1,.5,12.441c-.281,7.09-1.347,11.361-1.663,11.312-.448-.053-.09-4.381-.316-11.312a111.547,111.547,0,0,0-1.08-12.1,103.823,103.823,0,0,0-8.39-28.4,110.867,110.867,0,0,0-5.671-10.75C184.743,219.249,182.09,215.813,182.439,215.521Z" transform="translate(-182.408 -215.511)" fill="#fff"/></g></g></g><g transform="translate(781.581 227.876)"><path d="M436.629,166.484l2.047-4.179,56.978,43.534L470.8,246.11l-56.718-47.822Z" transform="translate(-406.75 -162.305)" fill="#6e5395"/><path d="M464.769,184.125l-21.837,37.764-1.4-.623,19.447-35.309Z" transform="translate(-378.253 -139.659)" fill="#d5d3d3"/><path d="M429.076,163.949l55.511,41.116a2.479,2.479,0,0,1-1.61,1.426,4.466,4.466,0,0,1-2.176.406l-58.362-39.942a17.565,17.565,0,0,0,4.585-1.7A13.962,13.962,0,0,1,429.076,163.949Z" transform="translate(-398.072 -160.599)" fill="#f4f3f3"/><path d="M433.422,164.633l60.83,40.631L474.5,242.706l-3.183,5.186-60.832-45.025s6.407-9.562,10.255-15.335,11.4-19.39,11.809-20.262A20.811,20.811,0,0,0,433.422,164.633Z" transform="translate(-410.482 -159.889)" fill="#6e5395"/></g><g transform="translate(0 43.381)"><path d="M89.594,125.906a6.524,6.524,0,0,0-2.152,7.942c2.152,4.964,11.583,19.69,24.324,19.193.522-.02-16.05-27.134-16.05-27.134Z" transform="translate(35.203 -15.587)" fill="#f97a5d"/><g transform="translate(43.728 369.8)"><path d="M109.99,265.227s-15.932-14.234-21.033-11.685c-6.232,3.116-41.9,38.063-40.507,54.529.571,6.741,8.422.964,22.41-13.546s31.607-8.29,31.607-8.29Z" transform="translate(-48.41 -253.236)" fill="#6e5395"/></g><g transform="translate(81.891 394.255)"><path d="M129.263,276.772l-19.235-11.536s-49.854,46.738-42.064,52.97c5.908,4.726,9.378.487,23.368-14.023s31.713-6.165,31.713-6.165Z" transform="translate(-67.137 -265.236)" fill="#6e5395"/></g><path d="M194.214,195.443l3.607,51.215L117.757,225.8Z" transform="translate(67.29 56.583)" fill="#e0a584"/><path d="M123.01,211.2s70.033,4.412,79.359,1.3c0,0,13.688,134.452-10.666,148.958s-79.006-6.735-79.006-6.735l14.756-29.013,31.815-2.075V271.828l-2.28.518Z" transform="translate(62.037 72.941)" fill="#1d262d"/><path d="M81.326,302.916S63.71,310.171,69.41,327.788c0,0,60.129,47.15,89.389,36.268,16.393-6.1,34-52.6,46.321-92.336l43.351-59.214s-20.446,1.023-27.267,1c-13.034-.049-52.092-2.3-52.092-2.3s-20.4,106.739-27.668,109.327S81.326,302.916,81.326,302.916Z" transform="translate(15.934 72.941)" fill="#2c373f"/><path d="M125.766,222.043s41.972-39.38,49.225-49.744,22.8-45.078,41.968-59.587l-9.325-19.688s5.7-3.108,9.325,5.18c0,0,13.47-26.943,16.58-26.425S227.323,92.5,227.323,92.5s12.957-18.653,16.582-18.133-9.329,20.97-9.329,20.97,14.508-16.825,16.582-14.752-11.4,14.752-11.4,14.752,14.506-8.329,16.06-5.584-14.506,10-14.506,10-1.555,11.917-11.4,17.1c0,0-19.492,52.66-37.11,69.76l-56.594,58.817Z" transform="translate(75.602 -71.771)" fill="#eebcc5"/><path d="M178.218,155.526s-39.767,41.6-50.2,48.756S82.732,226.66,68.045,245.693l-19.6-9.513s-3.161,5.671,5.1,9.374c0,0-27.069,13.22-26.58,16.336s20.782-6.024,20.782-6.024-18.775,12.781-18.29,16.409,21.055-9.13,21.055-9.13S33.55,277.494,35.6,279.585,50.46,268.326,50.46,268.326,42,282.756,44.73,284.335s10.134-14.414,10.134-14.414,11.93-1.439,17.206-11.237c0,0,49.881-19.847,67.146-37.3L201.288,177.4Z" transform="translate(-26.953 15.155)" fill="#eebcc5"/><path d="M118.74,154.222,98.626,173.91l5.1,22.2s19.816,47.574,22.812,59.18c4.657,18.047-2.875,45.563-2.875,45.563s33.594-2.788,64.162-3.823,40.566-10.884,40.566-10.884-26.5-88.27-44.8-112.943-24.958-32.394-24.958-32.394L131.692,146.7Z" transform="translate(47.434 -0.122)" fill="#fff"/><path d="M153.125,178.019l20.957-13.391s3.2-14.347-22.072-31.267L122.372,151.93Z" transform="translate(72.079 -7.85)" fill="#fff"/><path d="M118.443,156.5c-11.489,1.612-32.486,30.731-34.827,30.674,0,0,14.777,24.114,26.482,24.9C110.1,212.072,161.609,150.447,118.443,156.5Z" transform="translate(31.856 15.732)" fill="#fff"/><path d="M153.182,180.271s-16.7-12.476-16.122-17.452c.147-1.253,2.462-3.287,3.063-5.093,3.238-9.712-12.374-34.746-21.966-40.02-7.546-4.151-4.239-4.518-20.12,4.919s-6.833,25.759.259,34.2c6.7,7.978,14.383,11.4,21.292,11.972l9.823,21.817Z" transform="translate(37.675 -26.985)" fill="#eebcc5"/><path d="M106.251,167.623c-3.159-7.748,2.822-17.507,13.36-21.805s21.642-1.506,24.807,6.24-7.448,19.39-13.368,21.805S109.408,175.367,106.251,167.623Z" transform="translate(54.472 2.984)" fill="#eebcc5"/><g transform="matrix(0.788, -0.616, 0.616, 0.788, 213.467, 171.851)"><g transform="translate(0 0)"><path d="M0,0V1.26l1.353.6V.609Z" transform="translate(1.623 2.502)" fill="#04c7ff"/><path d="M1.251,1.818l1.725.761V1.327L0,0V4.836H.025l2.95,1.319V4.895L1.251,4.126Z" fill="#04c7ff"/></g><g transform="translate(2.976 0)"><path d="M1.725,1.082v.524L0,2.376H0v1.26H0L2.95,2.316h.025V0L.845,1.463Z" transform="translate(0 2.519)" fill="#04c7ff"/><path d="M2.976,1.809V0L0,1.327H0V2.579H0l1.725-.769v.533L0,3.111V4.362L2.976,2.316l2-1.378Z" fill="#04c7ff"/></g></g><path d="M96.752,135.487s-5.417-.3-6.018,3.312,9.931,3.611,13.841.9Z" transform="translate(39.218 -5.649)" fill="#eebcc5"/><path d="M106.295,168.249c-1.029-6.523-7.978-11.373-7.634-17.729,3.334.024,5.474-4.1,3.956-7.628-.6-1.386-1.608-2.574-2.252-3.939s-.815-3.157.173-3.927a3.262,3.262,0,0,1,1.708-.491c4.942-.507,13.4.974,17.949-.709,4.33-1.6,8.967-4.726,8.516-10.028-.393-4.616-4.471-8.361-8.215-11.188-2.148-1.622-8.28-5.863-10.591-5.48-3.534.589-4.388,5.3-4.644,9.244A6.133,6.133,0,0,0,97,116.31c-2.148,1.914-3.163,4.954-4.1,7.891s-1.928,5.983-4.047,7.933c-1.977,1.82-5.1,3.2-4.691,6.287.487,3.684,5.3,4.995,7.526,8.135-.546-.77-1.013,4.149-.7,4.985.95,2.513,3.32,4.174,5.034,6.1C99.676,161.734,101.461,165.857,106.295,168.249Z" transform="translate(32.384 -35.1)" fill="#f97a5d"/><path d="M116.138,129.789,103.8,136.172S118.62,146.932,116.138,129.789Z" transform="translate(52.801 -11.557)" fill="#fff"/><path d="M105.144,131.606c.672,1.28-.326,3.13-2.231,4.133s-4,.778-4.669-.5.324-3.13,2.229-4.133S104.469,130.326,105.144,131.606Z" transform="translate(46.818 -10.842)" fill="#e5b3bc"/><path d="M113.985,125.564c.675,1.28-.324,3.13-2.229,4.133s-4,.778-4.671-.5.326-3.13,2.231-4.135S113.312,124.285,113.985,125.564Z" transform="translate(55.996 -17.112)" fill="#e5b3bc"/><g transform="translate(152.164 107.474)"><path d="M109.781,134.816c-.057-.071.173-.375.709-.76a13.262,13.262,0,0,0,2.052-1.526c.652-.689.886-2.119-.11-2.321-1.039-.353-2.215.838-3.566,1.969l-.992.823a2.2,2.2,0,0,1-1.62.609,3.651,3.651,0,0,1-2.3-1.624,11.247,11.247,0,0,1-1.916-3.707c-.662-2.3-.365-3.782-.206-3.768.222-.012.3,1.414,1.139,3.436a12.3,12.3,0,0,0,1.981,3.224c.448.546,1.017,1.056,1.418,1.072.171.008.3-.049.622-.316s.648-.546.98-.823c.679-.55,1.27-1.107,2.046-1.624a3.294,3.294,0,0,1,2.8-.5,2.121,2.121,0,0,1,1.457,2.309,3.234,3.234,0,0,1-1.021,1.938,8.138,8.138,0,0,1-2.5,1.312C110.164,134.756,109.844,134.9,109.781,134.816Z" transform="translate(-101.621 -124.51)" fill="#e5b3bc"/></g><path d="M104.123,142.675s7.872.045,12.146-2.584a18.337,18.337,0,0,1-10.846,5.588Z" transform="translate(53.139 -0.865)" fill="#e5b3bc"/><g transform="translate(155.887 105.928)"><path d="M108.237,124.331c-.071.389-1.172.509-2.335,1.023-1.178.477-2.03,1.182-2.36.964-.336-.179.22-1.583,1.814-2.254S108.343,123.965,108.237,124.331Z" transform="translate(-103.448 -123.751)" fill="#2c373f"/></g><g transform="translate(145.162 112.381)"><path d="M98.272,131.163c-.3-.22.169-1.488,1.3-2.755,1.147-1.3,2.613-1.728,2.767-1.367s-.73,1.176-1.736,2.315S98.594,131.405,98.272,131.163Z" transform="translate(-98.185 -126.918)" fill="#2c373f"/></g><g transform="translate(138.747 107.322)"><path d="M95.56,131.785c-.638-.475-1.137-2.5,1.3-5.223,2.466-2.788,5.219-2.3,5.549-1.522.353.76-.562,1.842-2.725,4.292C97.494,131.775,96.251,132.3,95.56,131.785Z" transform="translate(-95.037 -124.435)" fill="#f97a5d"/></g><g transform="translate(152.122 99.451)"><path d="M101.707,125.052c-.353-.66.037-2.58,3.21-3.921,3.22-1.384,5.368.143,5.337.935-.006.789-1.221,1.341-4.045,2.56C103.356,125.823,102.086,125.772,101.707,125.052Z" transform="translate(-101.601 -120.573)" fill="#f97a5d"/></g></g><g transform="translate(589.338)"><g transform="translate(157.794 166.399)"><path d="M475.881,132.167c.208.206-3.212,4.053-10.307,8.241a61.861,61.861,0,0,1-61.56.454c-7.157-4.084-10.634-7.88-10.428-8.09.3-.375,4.184,2.829,11.349,6.338a65.9,65.9,0,0,0,59.693-.44C471.739,135.056,475.582,131.8,475.881,132.167Z" transform="translate(-393.578 -132.138)" fill="#6e5395"/></g><g transform="translate(91.069 147.45)"><path d="M432.484,136c-.194.428-3.98-1.145-10.358-2.566a110.343,110.343,0,0,0-11.333-1.865c-4.312-.475-9.079-.854-14.112-1.213s-9.855-.758-14.232-1.3A92.047,92.047,0,0,1,370.9,126.91c-6.5-1.7-10.187-3.707-10.059-3.988.167-.43,4.041.893,10.483,2.054,3.216.611,7.092,1.086,11.41,1.518,4.328.4,9.109.717,14.153,1.072s9.869.821,14.245,1.449a80.126,80.126,0,0,1,11.5,2.507C429.07,133.487,432.629,135.738,432.484,136Z" transform="translate(-360.835 -122.839)" fill="#6e5395"/></g><path d="M371.358,101.533c12.093-2.564,24.62-.357,36.814,1.675s24.854,3.864,36.775.593c21.524-5.908,37.863-27.654,60.182-27.479,9.191.071,17.856,4,26.81,6.073,11.119,2.58,22.7,2.3,33.965,4.143s22.9,6.368,29.268,15.842c7.552,11.243,5.48,27.1-2.445,38.088s-20.615,17.672-33.619,21.463c-9.07,2.643-18.734,4.174-26.584,9.433C524.586,176.683,519.4,185.248,512,191.3c-18.561,15.178-47.45,10.829-66.624-3.57-4.818-3.619-9.284-7.815-14.695-10.464-22.015-10.774-53.677,3.491-72.638-16.117C338.791,141.237,341.534,107.858,371.358,101.533Z" transform="translate(-285.368 -23.668)" fill="#6e5395"/><path d="M355.378,282.825s20.173,43.233,22.531,35.229,1.575-27.236.312-29.981-9.515-14.872-9.515-14.872Z" transform="translate(-275.43 180.665)" fill="#e5b3bc"/><path d="M429.115,120.211c1.867,2.39.62-.179,2.733,3.271,8.783-.308,14.679-7.74,14.679-7.74s13.943.371,13.78-2.119-13.364-1.563-13.364-1.563,13.97-4.39,13.2-6.58-16.89,4.8-16.89,4.8,16.274-10.1,13.87-11.722-18.062,7.2-18.062,7.2,13.609-11.178,11.569-12.62-20.91,13.108-20.91,13.108c.275-7.155-4.86-6.9-4.86-6.9l.212,17.475A31.055,31.055,0,0,1,429.115,120.211Z" transform="translate(-203.315 -6.323)" fill="#eebcc5"/><path d="M335.3,85.282c-2.986.548-.67-.489-4.542.693-6.36-6.063-5.516-15.6-5.516-15.6s-10.666-8.977-8.9-10.731,11.033,7.7,11.033,7.7-7.53-12.555-5.5-13.686,9.452,14.8,9.452,14.8-5.466-18.357-2.592-17.974,8.724,17.373,8.724,17.373-2.753-17.389-.277-17.114,6.941,23.686,6.941,23.686c4.544-5.535,8.215-1.94,8.215-1.94l-11.52,12.669A44.28,44.28,0,0,0,335.3,85.282Z" transform="translate(-316.147 -50.484)" fill="#eebcc5"/><path d="M371.658,103.4c-3.858-.632-13.185,5.567-17.852,15.671-2.613,5.653-4.41,11.4-1.41,20.6,1.41,4.326,4.367,4.866,5.025,6.8.834,2.454-1.928,10.189-1.928,10.189l11.013,4.447c.715-5.313,1.526-10.66,6.941-12.967a56.39,56.39,0,0,0,6.1-2.5c5.16-2.957,7.913-9.427,10.032-14.724C391.164,126.958,381.33,104.986,371.658,103.4Z" transform="translate(-280.145 4.39)" fill="#eebcc5"/><path d="M391.783,180.833l-18.447-7.4s-54.745,101.522-54.519,129.69,75.189,84.559,75.189,84.559l12.645-10.929s-23.146-40.354-35.518-54.584S391.783,180.833,391.783,180.833Z" transform="translate(-313.376 77.116)" fill="#e5b3bc"/><path d="M405.408,244.8s40.657-19.29,32.488-20.994-27.277.642-29.908,2.125-14.051,10.687-14.051,10.687Z" transform="translate(-235.411 128.791)" fill="#eebcc5"/><path d="M387.817,176.63l-27.984,10.181S331.841,309.929,342.528,329.26s40.694,6.542,83.436-16.788l35.8-19.543-11.948-7.954s-41.66,8.164-53.359,16.3c0,0,6.1-17.3,14.247-41.719S424.456,210.208,387.817,176.63Z" transform="translate(-291.291 80.438)" fill="#eebcc5"/><path d="M346.611,142.65c0-8.18,2.633-14.1,10.813-14.1s19.486,2.869,19.486,11.051-6.446,21.469-14.628,21.469S346.611,150.834,346.611,142.65Z" transform="translate(-284.529 30.54)" fill="#eebcc5"/><path d="M378.284,191.748s-25.439-27.529-30.525-54.495-13.737-70.718-13.737-70.718l-9.668,2.782s-4.581,59.8,0,68.955S351.3,208.4,358.119,224.41Z" transform="translate(-309.742 -33.825)" fill="#eebcc5"/><path d="M363.191,173.931s1.956-8.563,34.122-20.2,92.847-49.357,92.847-49.357l6.057,6.927s-32.973,38.086-52.155,44.768-59.926,33.019-64.117,35.129C373.6,194.383,373.684,198.4,363.191,173.931Z" transform="translate(-267.321 5.445)" fill="#eebcc5"/><path d="M362.943,127.978s-25.844,8.376-25.844,47.7c0,0,.016,53.861,6.107,63.659a54.479,54.479,0,0,0,22.247,0c12.944-2.661,25.473-12.211,25.473-12.211l20.33-61.032-2.433-28.6-27.642-5.339s7.931,37.056-20.758,21.126c-5.576-3.1,8.2-24.12,8.2-24.12Z" transform="translate(-294.401 29.944)" fill="#2c373f"/><path d="M345.536,168.318,332.8,141.787s1.826-16.093,25.2-21.862c0,0,2.364,8.113,4.956,11.212s10.136,6.395,10.136,6.395Z" transform="translate(-298.862 21.586)" fill="#2c373f"/><path d="M366.25,169.4l40.494-8.3s7.041-14.587-9.653-31.939c0,0-31.587,1.907-35.675,2.248-4.025.336-1.262,3.434-1.262,3.434Z" transform="translate(-271.432 31.17)" fill="#2c373f"/><path d="M362.793,180.546s-38.3,70.814-44.629,83.467c0,0,113,51.906,158.868-10.572,0,0-26.093-55.226-66.43-76.251h0l-17.4-5.209-29.726,8.225" transform="translate(-314.053 75.613)" fill="#2c373f"/><path d="M370.488,117.777s4.363-4.363,7.047-1.343-9.731,7.383-9.731,7.383Z" transform="translate(-262.534 16.858)" fill="#eebcc5"/><g transform="translate(66.046 69.934)"><path d="M470.271,90c.045.153-1.642.88-4.858,1.645a67,67,0,0,1-13.89,1.594,137.59,137.59,0,0,1-20.637-1.451c-7.7-1.021-16.067-2.521-24.868-3.481-8.787-.939-17.236-1.111-24.719.1a55.623,55.623,0,0,0-18.915,6.5,42.145,42.145,0,0,0-10.511,8.512c-2.13,2.425-3.085,3.972-3.3,3.843-.118-.063.52-1.808,2.45-4.524a37.506,37.506,0,0,1,10.336-9.523,54.309,54.309,0,0,1,19.515-7.357c7.791-1.4,16.5-1.292,25.445-.336,8.948.976,17.324,2.562,24.935,3.711a161.949,161.949,0,0,0,20.279,2.024C463.139,91.578,470.165,89.518,470.271,90Z" transform="translate(-348.556 -84.802)" fill="#6e5395"/></g><g transform="translate(80.262 121.283)"><path d="M361.008,120.875c-.012.171-1.257.289-3.153-.338a4.24,4.24,0,0,1-1.539-.854,2.478,2.478,0,0,1-.636-.927,2.1,2.1,0,0,1,.014-1.585c.059-.092.057-.31.177-.314l.367-.01a2.627,2.627,0,0,1,.791.1,6.354,6.354,0,0,0,1.019.1,8,8,0,0,0,1.922-.194,7.792,7.792,0,0,0,5.217-4.07c.833-1.6.907-2.8,1.129-2.784.157-.018.467,1.257-.224,3.183a7.988,7.988,0,0,1-1.942,2.973,8.112,8.112,0,0,1-3.874,2.064,8.269,8.269,0,0,1-3.267.084c-.134-.024-.118-.055-.145-.037a.092.092,0,0,0-.022.079,1.348,1.348,0,0,0,.3.516,3.541,3.541,0,0,0,1.1.76C359.874,120.425,361.038,120.665,361.008,120.875Z" transform="translate(-355.532 -109.999)" fill="#e5b3bc"/></g><path d="M353.761,115.567l14.917,5.877S355.571,130.484,353.761,115.567Z" transform="translate(-277.108 17.063)" fill="#fff"/><path d="M367.054,118.861c-.53,1-2.172,1.182-3.67.393s-2.282-2.242-1.755-3.248,2.174-1.182,3.672-.393S367.583,117.854,367.054,118.861Z" transform="translate(-269.113 16.598)" fill="#e5b3bc"/><path d="M358.963,114.387c-.452,1.043-2.077,1.345-3.631.673s-2.445-2.062-2-3.106,2.077-1.345,3.629-.673S359.413,113.344,358.963,114.387Z" transform="translate(-277.67 12.243)" fill="#e5b3bc"/><path d="M353.326,123.6s5.231,4.379,10.685,2.967c0,0-1.881,2.822-9.121,1.787C354.889,128.349,355.492,125.242,353.326,123.6Z" transform="translate(-277.56 25.395)" fill="#e5b3bc"/><path d="M364.709,112.958a1.182,1.182,0,1,1-1.182-1.18A1.182,1.182,0,0,1,364.709,112.958Z" transform="translate(-268.199 13.131)" fill="#2c373f"/><ellipse cx="1.181" cy="1.181" rx="1.181" ry="1.181" transform="translate(84.475 121.425)" fill="#2c373f"/><g transform="translate(96.065 119.745)"><path d="M367.528,112.441c-.365.153-1.07-.7-2.138-1.39-1.045-.721-2.105-1.045-2.1-1.443-.035-.379,1.445-.685,2.882.279S367.893,112.327,367.528,112.441Z" transform="translate(-363.287 -109.244)" fill="#6e5395"/></g><g transform="translate(83.261 116.416)"><path d="M357,108.4c-.024-.369,1.245-.836,2.945-.789,1.73.037,3.008.876,2.831,1.227s-1.367.2-2.886.173C358.368,108.969,357.029,108.8,357,108.4Z" transform="translate(-357.004 -107.61)" fill="#6e5395"/></g><path d="M359.618,297.963s6.205,22.023,12.612,20.222,1.59-32.541,1.59-32.541l-6.395-10.1S373.433,326.994,359.618,297.963Z" transform="translate(-271.03 183.094)" fill="#2c373f"/><path d="M398.014,230.437s4.512-4.924,9.981-5.743,25.025-3.146,27.9-.548-15.849,11.31-15.849,11.31,6.523-4.155,3.815-5.7C419.073,227.017,398.014,230.437,398.014,230.437Z" transform="translate(-231.18 128.513)" fill="#2c373f"/><path d="M394.207,230.368l6.122,12.429,3.339-1.855L395.505,228.7Z" transform="translate(-235.131 134.478)" fill="#2c373f"/><path d="M368.269,270.755,353.242,284.3l4.452,3.71,12.615-13.728Z" transform="translate(-277.647 178.128)" fill="#2c373f"/></g><g transform="translate(589.338 0)"><g transform="translate(157.794 166.399)"><path d="M475.881,132.167c.208.206-3.212,4.053-10.307,8.241a61.861,61.861,0,0,1-61.56.454c-7.157-4.084-10.634-7.88-10.428-8.09.3-.375,4.184,2.829,11.349,6.338a65.9,65.9,0,0,0,59.693-.44C471.739,135.056,475.582,131.8,475.881,132.167Z" transform="translate(-393.578 -132.138)" fill="#6e5395"/></g><g transform="translate(91.069 147.45)"><path d="M432.484,136c-.194.428-3.98-1.145-10.358-2.566a110.343,110.343,0,0,0-11.333-1.865c-4.312-.475-9.079-.854-14.112-1.213s-9.855-.758-14.232-1.3A92.047,92.047,0,0,1,370.9,126.91c-6.5-1.7-10.187-3.707-10.059-3.988.167-.43,4.041.893,10.483,2.054,3.216.611,7.092,1.086,11.41,1.518,4.328.4,9.109.717,14.153,1.072s9.869.821,14.245,1.449a80.126,80.126,0,0,1,11.5,2.507C429.07,133.487,432.629,135.738,432.484,136Z" transform="translate(-360.835 -122.839)" fill="#6e5395"/></g><path d="M371.358,101.533c12.093-2.564,24.62-.357,36.814,1.675s24.854,3.864,36.775.593c21.524-5.908,37.863-27.654,60.182-27.479,9.191.071,17.856,4,26.81,6.073,11.119,2.58,22.7,2.3,33.965,4.143s22.9,6.368,29.268,15.842c7.552,11.243,5.48,27.1-2.445,38.088s-20.615,17.672-33.619,21.463c-9.07,2.643-18.734,4.174-26.584,9.433C524.586,176.683,519.4,185.248,512,191.3c-18.561,15.178-47.45,10.829-66.624-3.57-4.818-3.619-9.284-7.815-14.695-10.464-22.015-10.774-53.677,3.491-72.638-16.117C338.791,141.237,341.534,107.858,371.358,101.533Z" transform="translate(-285.368 -23.668)" fill="#6e5395"/><path d="M355.378,282.825s20.173,43.233,22.531,35.229,1.575-27.236.312-29.981-9.515-14.872-9.515-14.872Z" transform="translate(-275.43 180.665)" fill="#e5b3bc"/><path d="M429.115,120.211c1.867,2.39.62-.179,2.733,3.271,8.783-.308,14.679-7.74,14.679-7.74s13.943.371,13.78-2.119-13.364-1.563-13.364-1.563,13.97-4.39,13.2-6.58-16.89,4.8-16.89,4.8,16.274-10.1,13.87-11.722-18.062,7.2-18.062,7.2,13.609-11.178,11.569-12.62-20.91,13.108-20.91,13.108c.275-7.155-4.86-6.9-4.86-6.9l.212,17.475A31.055,31.055,0,0,1,429.115,120.211Z" transform="translate(-203.315 -6.323)" fill="#eebcc5"/><path d="M335.3,85.282c-2.986.548-.67-.489-4.542.693-6.36-6.063-5.516-15.6-5.516-15.6s-10.666-8.977-8.9-10.731,11.033,7.7,11.033,7.7-7.53-12.555-5.5-13.686,9.452,14.8,9.452,14.8-5.466-18.357-2.592-17.974,8.724,17.373,8.724,17.373-2.753-17.389-.277-17.114,6.941,23.686,6.941,23.686c4.544-5.535,8.215-1.94,8.215-1.94l-11.52,12.669A44.28,44.28,0,0,0,335.3,85.282Z" transform="translate(-316.147 -50.484)" fill="#eebcc5"/><path d="M371.658,103.4c-3.858-.632-13.185,5.567-17.852,15.671-2.613,5.653-4.41,11.4-1.41,20.6,1.41,4.326,4.367,4.866,5.025,6.8.834,2.454-1.928,10.189-1.928,10.189l11.013,4.447c.715-5.313,1.526-10.66,6.941-12.967a56.39,56.39,0,0,0,6.1-2.5c5.16-2.957,7.913-9.427,10.032-14.724C391.164,126.958,381.33,104.986,371.658,103.4Z" transform="translate(-280.145 4.39)" fill="#eebcc5"/><path d="M391.783,180.833l-18.447-7.4s-54.745,101.522-54.519,129.69,75.189,84.559,75.189,84.559l12.645-10.929s-23.146-40.354-35.518-54.584S391.783,180.833,391.783,180.833Z" transform="translate(-313.376 77.116)" fill="#e5b3bc"/><path d="M405.408,244.8s40.657-19.29,32.488-20.994-27.277.642-29.908,2.125-14.051,10.687-14.051,10.687Z" transform="translate(-235.411 128.791)" fill="#eebcc5"/><path d="M387.817,176.63l-27.984,10.181S331.841,309.929,342.528,329.26s40.694,6.542,83.436-16.788l35.8-19.543-11.948-7.954s-41.66,8.164-53.359,16.3c0,0,6.1-17.3,14.247-41.719S424.456,210.208,387.817,176.63Z" transform="translate(-291.291 80.438)" fill="#eebcc5"/><path d="M346.611,142.65c0-8.18,2.633-14.1,10.813-14.1s19.486,2.869,19.486,11.051-6.446,21.469-14.628,21.469S346.611,150.834,346.611,142.65Z" transform="translate(-284.529 30.54)" fill="#eebcc5"/><path d="M378.284,191.748s-25.439-27.529-30.525-54.495-13.737-70.718-13.737-70.718l-9.668,2.782s-4.581,59.8,0,68.955S351.3,208.4,358.119,224.41Z" transform="translate(-309.742 -33.825)" fill="#eebcc5"/><path d="M363.191,173.931s1.956-8.563,34.122-20.2,92.847-49.357,92.847-49.357l6.057,6.927s-32.973,38.086-52.155,44.768-59.926,33.019-64.117,35.129C373.6,194.383,373.684,198.4,363.191,173.931Z" transform="translate(-267.321 5.445)" fill="#eebcc5"/><path d="M362.943,127.978s-25.844,8.376-25.844,47.7c0,0,.016,53.861,6.107,63.659a54.479,54.479,0,0,0,22.247,0c12.944-2.661,25.473-12.211,25.473-12.211l20.33-61.032-2.433-28.6-27.642-5.339s7.931,37.056-20.758,21.126c-5.576-3.1,8.2-24.12,8.2-24.12Z" transform="translate(-294.401 29.944)" fill="#2c373f"/><path d="M345.536,168.318,332.8,141.787s1.826-16.093,25.2-21.862c0,0,2.364,8.113,4.956,11.212s10.136,6.395,10.136,6.395Z" transform="translate(-298.862 21.586)" fill="#2c373f"/><path d="M366.25,169.4l40.494-8.3s7.041-14.587-9.653-31.939c0,0-31.587,1.907-35.675,2.248-4.025.336-1.262,3.434-1.262,3.434Z" transform="translate(-271.432 31.17)" fill="#2c373f"/><g transform="matrix(0.934, 0.358, -0.358, 0.934, 93.707, 190.525)"><path d="M0,0V1.26l1.353.6V.609Z" transform="translate(1.623 2.502)" fill="#fff"/><path d="M1.251,1.818l1.725.761V1.327L0,0V4.836H.025l2.95,1.319V4.895L1.251,4.126Z" fill="#fff"/><g transform="translate(2.976 0)"><path d="M1.725,1.082v.524L0,2.376H0v1.26H0L2.95,2.316h.025V0L.845,1.463Z" transform="translate(0 2.519)" fill="#fff"/><path d="M2.976,1.809V0L0,1.327H0V2.579H0l1.725-.769v.533L0,3.111V4.362L2.976,2.316l2-1.378Z" fill="#fff"/></g></g><path d="M362.793,180.546s-38.3,70.814-44.629,83.467c0,0,113,51.906,158.868-10.572,0,0-26.093-55.226-66.43-76.251h0l-17.4-5.209-29.726,8.225" transform="translate(-314.053 75.613)" fill="#2c373f"/><path d="M370.488,117.777s4.363-4.363,7.047-1.343-9.731,7.383-9.731,7.383Z" transform="translate(-262.534 16.858)" fill="#eebcc5"/><g transform="translate(66.046 69.934)"><path d="M470.271,90c.045.153-1.642.88-4.858,1.645a67,67,0,0,1-13.89,1.594,137.59,137.59,0,0,1-20.637-1.451c-7.7-1.021-16.067-2.521-24.868-3.481-8.787-.939-17.236-1.111-24.719.1a55.623,55.623,0,0,0-18.915,6.5,42.145,42.145,0,0,0-10.511,8.512c-2.13,2.425-3.085,3.972-3.3,3.843-.118-.063.52-1.808,2.45-4.524a37.506,37.506,0,0,1,10.336-9.523,54.309,54.309,0,0,1,19.515-7.357c7.791-1.4,16.5-1.292,25.445-.336,8.948.976,17.324,2.562,24.935,3.711a161.949,161.949,0,0,0,20.279,2.024C463.139,91.578,470.165,89.518,470.271,90Z" transform="translate(-348.556 -84.802)" fill="#6e5395"/></g><g transform="translate(80.262 121.283)"><path d="M361.008,120.875c-.012.171-1.257.289-3.153-.338a4.24,4.24,0,0,1-1.539-.854,2.478,2.478,0,0,1-.636-.927,2.1,2.1,0,0,1,.014-1.585c.059-.092.057-.31.177-.314l.367-.01a2.627,2.627,0,0,1,.791.1,6.354,6.354,0,0,0,1.019.1,8,8,0,0,0,1.922-.194,7.792,7.792,0,0,0,5.217-4.07c.833-1.6.907-2.8,1.129-2.784.157-.018.467,1.257-.224,3.183a7.988,7.988,0,0,1-1.942,2.973,8.112,8.112,0,0,1-3.874,2.064,8.269,8.269,0,0,1-3.267.084c-.134-.024-.118-.055-.145-.037a.092.092,0,0,0-.022.079,1.348,1.348,0,0,0,.3.516,3.541,3.541,0,0,0,1.1.76C359.874,120.425,361.038,120.665,361.008,120.875Z" transform="translate(-355.532 -109.999)" fill="#e5b3bc"/></g><path d="M353.761,115.567l14.917,5.877S355.571,130.484,353.761,115.567Z" transform="translate(-277.108 17.063)" fill="#fff"/><path d="M367.054,118.861c-.53,1-2.172,1.182-3.67.393s-2.282-2.242-1.755-3.248,2.174-1.182,3.672-.393S367.583,117.854,367.054,118.861Z" transform="translate(-269.113 16.598)" fill="#e5b3bc"/><path d="M358.963,114.387c-.452,1.043-2.077,1.345-3.631.673s-2.445-2.062-2-3.106,2.077-1.345,3.629-.673S359.413,113.344,358.963,114.387Z" transform="translate(-277.67 12.243)" fill="#e5b3bc"/><path d="M353.326,123.6s5.231,4.379,10.685,2.967c0,0-1.881,2.822-9.121,1.787C354.889,128.349,355.492,125.242,353.326,123.6Z" transform="translate(-277.56 25.395)" fill="#e5b3bc"/><path d="M364.709,112.958a1.182,1.182,0,1,1-1.182-1.18A1.182,1.182,0,0,1,364.709,112.958Z" transform="translate(-268.199 13.131)" fill="#2c373f"/><ellipse cx="1.181" cy="1.181" rx="1.181" ry="1.181" transform="translate(84.475 121.425)" fill="#2c373f"/><g transform="translate(96.065 119.745)"><path d="M367.528,112.441c-.365.153-1.07-.7-2.138-1.39-1.045-.721-2.105-1.045-2.1-1.443-.035-.379,1.445-.685,2.882.279S367.893,112.327,367.528,112.441Z" transform="translate(-363.287 -109.244)" fill="#6e5395"/></g><g transform="translate(83.261 116.416)"><path d="M357,108.4c-.024-.369,1.245-.836,2.945-.789,1.73.037,3.008.876,2.831,1.227s-1.367.2-2.886.173C358.368,108.969,357.029,108.8,357,108.4Z" transform="translate(-357.004 -107.61)" fill="#6e5395"/></g><path d="M359.618,297.963s6.205,22.023,12.612,20.222,1.59-32.541,1.59-32.541l-6.395-10.1S373.433,326.994,359.618,297.963Z" transform="translate(-271.03 183.094)" fill="#2c373f"/><path d="M398.014,230.437s4.512-4.924,9.981-5.743,25.025-3.146,27.9-.548-15.849,11.31-15.849,11.31,6.523-4.155,3.815-5.7C419.073,227.017,398.014,230.437,398.014,230.437Z" transform="translate(-231.18 128.513)" fill="#2c373f"/><path d="M394.207,230.368l6.122,12.429,3.339-1.855L395.505,228.7Z" transform="translate(-235.131 134.478)" fill="#2c373f"/><path d="M368.269,270.755,353.242,284.3l4.452,3.71,12.615-13.728Z" transform="translate(-277.647 178.128)" fill="#2c373f"/></g><g transform="translate(254.118 99.64)"><path d="M232.287,272.138c-4.271-10.6-5.916-22.41-12.292-31.9-9.177-13.658-26.8-20.434-34.248-35.106-3.163-6.232-4.155-13.358-4.188-20.346-.061-13.827,4.078-28.524,14.756-37.309,12.27-10.094,30.682-9.953,45.051-3.171s25.345,19.091,34.68,31.95,17.505,26.657,28.375,38.245c8.06,8.592,17.619,16,23.692,26.095,16.643,27.67-.483,62.683-29.865,72.67C272.433,322.039,241.219,294.31,232.287,272.138Z" transform="translate(-120.613 -57.727)" fill="#2c373f"/><g transform="translate(40.009 93.841)"><g transform="translate(3.502)"><path d="M204.387,303.218c2.555,2.1-.232.646,3.485,3.067-.829,9.287-9.419,15.137-9.419,15.137s-.365,14.785-3.122,14.483-.994-14.237-.994-14.237-5.655,14.561-8.048,13.633,6.266-17.634,6.266-17.634-12.133,16.7-13.8,14.069,9.009-18.748,9.009-18.748-13.181,13.821-14.671,11.585,15.732-21.455,15.732-21.455c-7.97-.088-7.406-5.51-7.406-5.51l19.413,1.149A33.158,33.158,0,0,0,204.387,303.218Z" transform="translate(-173.002 12.519)" fill="#eebcc5"/><path d="M289.779,182.327c3.322.581.746-.518,5.056.736,7.078-6.431,6.138-16.539,6.138-16.539s11.873-9.519,9.9-11.379-12.28,8.168-12.28,8.168S306.979,150,304.725,148.8s-10.519,15.694-10.519,15.694,6.083-19.468,2.886-19.06-9.712,18.422-9.712,18.422,3.067-18.441.308-18.149-7.222,24.448-7.222,24.448c-6.5-5.29-11.051-1.9-11.051-1.9L283.641,182.2A51.413,51.413,0,0,1,289.779,182.327Z" transform="translate(-72.941 -145.427)" fill="#eebcc5"/><path d="M249.138,203.182c6.008-.937,24.322,10.931,19.661,35.033-.391,2.024-3.034,6.478-3.691,8.321-.833,2.333,5.647,10.874,5.647,10.874l-16.725,5.343c-.715-5.052.485-12.437-4.919-14.63a57.713,57.713,0,0,1-6.091-2.382c-5.152-2.812-7.9-8.965-10.016-14a30.315,30.315,0,0,1-2.737-11.893C230.38,209.563,239.485,204.688,249.138,203.182Z" transform="translate(-113.57 -85.538)" fill="#eebcc5"/><path d="M272.759,241.652c0-8.675-2.751-11.987-11.856-11.987s-21.124,3.312-21.124,11.987,6.429,19.535,15.539,19.535S272.759,250.329,272.759,241.652Z" transform="translate(-103.698 -57.999)" fill="#eebcc5"/><path d="M252.434,295.224s28.31-29.192,33.973-57.786S301.7,162.447,301.7,162.447l10.762,2.951s5.1,63.408,0,73.121-33.979,77.152-33.411,94.412Z" transform="translate(-90.563 -127.762)" fill="#eebcc5"/><path d="M270.64,234.537s-9.627,1.618-24.35,35.07-60.025,95.723-60.025,95.723l7.365,6.78s44.167-32.905,52.66-52.866,19.254-44.78,24.35-43.7S297.254,246.946,270.64,234.537Z" transform="translate(-159.238 -52.943)" fill="#eebcc5"/><path d="M279.943,278.632l13.183-36.386s-2.032-17.067-28.053-23.183L250.333,240.3Z" transform="translate(-92.743 -69.003)" fill="#f97a5d"/><path d="M244.166,233.167s-15.553,1.31-28.159,29c0,0,13.864,19.14,24.006,19.786C240.013,281.951,277.683,249.753,244.166,233.167Z" transform="translate(-128.369 -54.365)" fill="#f97a5d"/></g><g transform="translate(135.267 281.348)"><path d="M264.427,399.494s-22.451,45.844-25.076,37.356S237.6,407.967,239,405.057s10.589-15.771,10.589-15.771Z" transform="translate(-237.661 -173.682)" fill="#ffc5b1"/><path d="M260.066,291.337l20.529-7.85s60.932,107.656,60.679,137.523-83.685,89.67-83.685,89.67l-14.074-11.589s39.547-58.144,53.317-73.233c6.886-7.546-42.41-44.525-49.877-80.106S260.066,291.337,260.066,291.337Z" transform="translate(-231.583 -283.487)" fill="#5d4484"/></g><g transform="translate(0 268.034)"><g transform="translate(0 24.081)"><path d="M211.587,390.426s-42,30.957-40.25,22.266,12.325-26.439,14.974-28.412,17-9.4,17-9.4Z" transform="translate(-171.284 -199.4)" fill="#ffc5b1"/><path d="M262.862,323.975l60.745-35.2s2.413,122.288-12.17,148.73-117.5,43.193-117.5,43.193L187,464.252s63.494-37.831,82.99-45.237S262.862,323.975,262.862,323.975Z" transform="translate(-154.975 -288.771)" fill="#6e5395"/></g><path d="M260.956,276.954s-44.727,15.838-36.178,59.285,22.8,51.593,22.8,51.593l25.651-42.088,25.752-55.118-25.752-3.265Z" transform="translate(-116.891 -276.954)" fill="#6e5395"/></g><path d="M278.487,227.6s32.928,18.455,32.928,60.154c0,0-4.184,47.541-10.962,57.93a63.532,63.532,0,0,1-24.762,0c-14.408-2.82-28.351-12.947-28.351-12.947l-11.253-58.206-8.757-33.988,4.746-1.565,24.768-2.718s-3.56,37,24.094,18.622c5.824-3.868-7.249-23.158-7.249-23.158Z" transform="translate(-113.115 -60.14)" fill="#f97a5d"/><g transform="translate(178.645 203.12) rotate(-13)"><g transform="translate(0)"><path d="M0,0V1.26l1.353.6V.609Z" transform="translate(1.623 2.502)" fill="#fff"/><path d="M1.251,1.818l1.725.761V1.327L0,0V4.836H.025l2.95,1.319V4.895L1.251,4.126Z" fill="#fff"/></g><g transform="translate(2.976 0)"><path d="M1.725,1.082v.524L0,2.376H0v1.26H0L2.95,2.316h.025V0L.845,1.463Z" transform="translate(0 2.519)" fill="#fff"/><path d="M2.976,1.809V0L0,1.327H0V2.579H0l1.725-.769v.533L0,3.111V4.362L2.976,2.316l2-1.378Z" fill="#fff"/></g></g></g><path d="M328.075,374.429l49.381-30.568-40.8-71.211-45.141,29.27Z" transform="translate(-42.716 54.336)" fill="#fff"/><g transform="translate(78.443 151.439)"><path d="M190.158,173.7c.13-.114,1.653,1.268,4.066,4.09a83.864,83.864,0,0,1,8.963,12.924,94.05,94.05,0,0,1,8.9,21.61c2.413,8.445,4.031,17.935,7.74,27.075a60.18,60.18,0,0,0,7.037,12.437,67.341,67.341,0,0,0,9.111,9.761,64.841,64.841,0,0,0,19.488,11.473,62.784,62.784,0,0,0,14.952,3.568c3.627.4,5.675.461,5.682.7.008.149-2.036.461-5.761.389a53.828,53.828,0,0,1-15.524-2.786A63.381,63.381,0,0,1,234.3,263.563a67.311,67.311,0,0,1-9.635-10.081,61.02,61.02,0,0,1-7.436-13.024c-3.864-9.556-5.392-19.129-7.638-27.46a100.427,100.427,0,0,0-8.145-21.341,110.736,110.736,0,0,0-8.084-13.2C191.24,175.462,190,173.838,190.158,173.7Z" transform="translate(-190.144 -173.691)" fill="#2c373f"/></g><g transform="translate(163.141 104.325)"><path d="M231.849,150.572c.505-.077,1,6.719,4.8,16.772a75.612,75.612,0,0,0,8.779,16.543,80.417,80.417,0,0,0,7,8.577c2.623,2.853,5.48,5.749,8.18,9,5.415,6.556,9.14,13.641,12.647,19.9,3.483,6.315,6.256,12.323,7.666,17.7a32.47,32.47,0,0,1,1.09,13.026c-.487,3.075-1.251,4.632-1.378,4.589-.242-.063.153-1.708.291-4.685a36.165,36.165,0,0,0-1.9-12.37,88.816,88.816,0,0,0-8.017-17c-3.623-6.179-7.383-13.122-12.553-19.37-2.6-3.126-5.413-6.012-8.052-8.934a77.743,77.743,0,0,1-7.1-8.967,70.576,70.576,0,0,1-8.518-17.34,62.7,62.7,0,0,1-2.843-12.674C231.6,152.288,231.69,150.587,231.849,150.572Z" transform="translate(-231.706 -150.572)" fill="#2c373f"/></g><g transform="translate(176.187 227.446)"><path d="M246.369,221.224c-.026-.2,1.1-.373,2.16-1.622a1.912,1.912,0,0,0,.489-.952,1.53,1.53,0,0,0-.505-.982,1.444,1.444,0,0,0-1.174-.387c-.5.037-1.1.283-1.893.4a5.018,5.018,0,0,1-3.972-1.541,14.241,14.241,0,0,1-2.132-2.437c-1.033-1.526-1.355-2.629-1.2-2.708.181-.1.807.813,1.973,2.093a20.5,20.5,0,0,0,2.189,2.07,4.033,4.033,0,0,0,2.949,1.137c.554-.069,1.2-.33,1.987-.383a2.734,2.734,0,0,1,2.178.84,2.587,2.587,0,0,1,.752,2.009,2.705,2.705,0,0,1-.933,1.528C247.718,221.623,246.32,221.407,246.369,221.224Z" transform="translate(-238.108 -210.988)" fill="#e5b3bc"/></g><path d="M252.918,216.575,239.66,221.4S250.911,231.239,252.918,216.575Z" transform="translate(-60.31 22.256)" fill="#fff"/><path d="M241.856,216.623c.53,1.007-.255,2.462-1.753,3.248s-3.14.613-3.67-.393.255-2.46,1.753-3.248S241.328,215.619,241.856,216.623Z" transform="translate(-63.831 21.386)" fill="#e5b3bc"/><path d="M249.664,212.759c.434,1.05-.483,2.425-2.046,3.071s-3.185.318-3.619-.734.483-2.425,2.048-3.071S249.23,211.708,249.664,212.759Z" transform="translate(-55.919 17.19)" fill="#e5b3bc"/><path d="M239.852,225.643a25.077,25.077,0,0,0,10.091-.512,14.08,14.08,0,0,1-7.342,3.338A7.9,7.9,0,0,0,239.852,225.643Z" transform="translate(-60.111 31.136)" fill="#e5b3bc"/><path d="M243.067,210.9a1.181,1.181,0,1,1-1.665.137A1.181,1.181,0,0,1,243.067,210.9Z" transform="translate(-58.793 16.073)" fill="#2c373f"/><path d="M238.695,213.414a1.181,1.181,0,1,1-1.665.137A1.182,1.182,0,0,1,238.695,213.414Z" transform="translate(-63.331 18.684)" fill="#2c373f"/><g transform="translate(179.354 221.269)"><path d="M244.634,208.727c-.118.377-1.225.365-2.441.734-1.227.332-2.158.929-2.46.672-.312-.22.412-1.547,2.075-2.019S244.783,208.377,244.634,208.727Z" transform="translate(-239.662 -207.957)" fill="#2c373f"/></g><g transform="translate(168.845 227.091)"><path d="M234.592,215.059c-.3-.22.169-1.488,1.3-2.755,1.145-1.3,2.613-1.728,2.767-1.367s-.73,1.174-1.736,2.313S234.914,215.3,234.592,215.059Z" transform="translate(-234.505 -210.814)" fill="#2c373f"/></g><path d="M235.425,218.592s-4.253-3.572-6.293-.34,9.185,4.934,9.185,4.934Z" transform="translate(-71.494 22.591)" fill="#eebcc5"/><path d="M193.2,377.573s-6.1,2.649-7.689,4.241-16.17,26.774-14.314,29.955,16.476-7.618,16.476-7.618-12.235,2.317,5.527-26.578" transform="translate(-131.533 189.35)" fill="#6e5395"/><path d="M243.246,393.914s-4.33,4.681-5,6.829-1.863,31.224,1.259,33.176,11.657-14.09,11.657-14.09-10.2,7.993-7.917-25.848" transform="translate(-62.598 206.31)" fill="#6e5395"/><g transform="matrix(0.951, 0.309, -0.309, 0.951, 11.757, 0)"><g transform="matrix(0.95, -0.31, 0.31, 0.95, -283.65, -12.6)" filter="url(#s)"><rect width="556.05" height="41.282" rx="6" transform="matrix(0.95, 0.31, -0.31, 0.95, 265.88, 99.64)" fill="#fff"/></g><circle cx="8.425" cy="8.425" r="8.425" transform="translate(19.377 12.637)" fill="#41dcc7"/><rect width="0.842" height="32.857" transform="translate(113.122 4.212)" fill="#eeeff3"/><rect width="0.842" height="32.857" transform="translate(310.107 4.212)" fill="#eeeff3"/><rect width="0.842" height="16.007" transform="translate(508.027 12.637)" fill="#eeeff3"/><g transform="translate(516.452 14.322)"><rect width="12.637" height="12.637" fill="rgba(0,0,0,0)"/><path d="M2.633,11.584A1.58,1.58,0,0,1,1.053,10V3.16H.527a.527.527,0,0,1,0-1.053H2.633V1.58A1.579,1.579,0,0,1,4.213,0H6.319A1.58,1.58,0,0,1,7.9,1.58v.527H10A.527.527,0,0,1,10,3.16H9.478V10a1.579,1.579,0,0,1-1.58,1.58ZM2.106,10a.527.527,0,0,0,.527.527H7.9A.527.527,0,0,0,8.425,10V3.16H2.106ZM3.686,1.58v.527H6.845V1.58a.527.527,0,0,0-.527-.527H4.213A.527.527,0,0,0,3.686,1.58ZM5.792,8.425V5.266a.527.527,0,1,1,1.053,0v3.16a.527.527,0,1,1-1.053,0Zm-2.106,0V5.266a.527.527,0,1,1,1.053,0v3.16a.527.527,0,0,1-1.053,0Z" transform="translate(1.053 0.527)"/><g transform="translate(1.053 0.527)" clip-path="url(#c)"><g transform="translate(-1.053 -0.527)"><rect width="12.637" height="12.637" fill="rgba(0,0,0,0)"/><rect width="12.637" height="12.637" fill="#537097"/></g></g></g><rect width="103.627" height="8.425" rx="3" transform="translate(135.642 13.48)" fill="#eaf1f5"/><rect width="39.597" height="5.055" rx="2.527" transform="translate(135.642 28.645)" fill="#eaf1f5"/><rect width="33.7" height="5.055" rx="2.527" transform="translate(389.235 18.535)" fill="#eaf1f5"/><rect width="33.7" height="5.055" rx="2.527" transform="translate(437.257 18.535)" fill="#eaf1f5"/><rect width="41.282" height="6.74" rx="3" transform="translate(330.26 17.692)" fill="#eaf1f5"/><rect width="32.015" height="5.055" rx="2.527" transform="translate(58.132 18.535)" fill="#eaf1f5"/></g><path d="M288.782,182.2c7.316-8.566-8.187-11.657-8.187-11.657-6.5-5.29-11.182-2.294-11.182-2.294L283.641,182.2S284.472,180.949,288.782,182.2Z" transform="translate(-29.431 -51.586)" fill="#eebcc5"/></g></g><g transform="translate(1243.398 427.384)"><g transform="translate(0 0)"><path d="M63.674,38.668H8a8,8,0,0,1-8-8V8A8,8,0,0,1,8,0H81.287a8,8,0,0,1,8,8V30.668a8,8,0,0,1-8,8H75.049V50.043Z" transform="translate(0 0)" fill="#6c63ff"/></g><text transform="translate(13.291 24.141)" fill="#fff" font-size="15" font-family="ChalkboardSE-Bold, Chalkboard SE" font-weight="700"><tspan x="0" y="0">Welcome</tspan></text></g><g transform="translate(1025.174 211.044)"><path d="M26.6,46.337H8a8,8,0,0,1-8-8V8A8,8,0,0,1,8,0H42.55a8,8,0,0,1,8,8V38.338a8,8,0,0,1-8,8H40.228V59.97Z" transform="translate(0 0)" fill="#2d1e56"/><text transform="translate(16.442 29.186)" fill="#fff" font-size="22" font-family="ChalkboardSE-Bold, Chalkboard SE" font-weight="700"><tspan x="0" y="0">:)</tspan></text></g><g transform="translate(1592.559 191.84)"><g transform="translate(0 0)"><path d="M8,49.518a8,8,0,0,1-8-8V19.256a8,8,0,0,1,8-8H49.091L60.348,0V11.256h.523a8,8,0,0,1,8,8V41.518a8,8,0,0,1-8,8Z" transform="translate(68.871 49.517) rotate(180)" fill="#2d1e56"/></g><text transform="translate(15.297 22.061)" fill="#fdfdfe" font-size="15" font-family="ChalkboardSE-Bold, Chalkboard SE" font-weight="700"><tspan x="0" y="0">Yupi</tspan></text></g></g></svg>