<svg xmlns="http://www.w3.org/2000/svg" xmlns:xlink="http://www.w3.org/1999/xlink" width="215.245" height="38" viewBox="0 0 215.245 38"><defs><linearGradient id="a" x1="-0.028" y1="0.954" x2="0.738" y2="0.084" gradientUnits="objectBoundingBox"><stop offset="0" stop-color="#3200a8"/><stop offset="1" stop-color="#0050f7"/></linearGradient></defs><g transform="translate(54.278 9.496)"><path d="M591.912,615.247h6.282c6.008,0,9.86,3.918,9.86,9.533s-3.67,9.468-9.782,9.468h-6.36Zm6.125,15.646a6.141,6.141,0,0,0,.235-12.276h-2.651v12.276Z" transform="translate(-591.912 -615.241)"/><path d="M676.361,636.558v13.059H673.03v-1.58h-.065a4.708,4.708,0,0,1-3.9,1.8c-3.618,0-6.256-2.677-6.256-6.712,0-3.97,2.651-6.791,6.151-6.791a4.927,4.927,0,0,1,3.853,1.7h.052v-1.476ZM669.7,646.705a3.343,3.343,0,0,0,3.3-3.565,3.339,3.339,0,1,0-6.648,0,3.306,3.306,0,0,0,3.343,3.565Z" transform="translate(-644.322 -630.831)"/><path d="M729.057,637.285c-2.247,0-3.735-1.41-3.735-4.349V626.9h-1.541V624h1.541v-4.27l3.5-.379V624h3.552v2.9h-3.552v5.55c0,1.123.326,1.672,1.15,1.672a4.038,4.038,0,0,0,1.645-.457l.9,2.795a6.348,6.348,0,0,1-3.461.823Z" transform="translate(-689.4 -618.278)"/><path d="M774.921,636.558v13.059h-3.33v-1.58h-.065a4.709,4.709,0,0,1-3.9,1.8c-3.617,0-6.255-2.677-6.255-6.712,0-3.97,2.651-6.791,6.151-6.791a4.926,4.926,0,0,1,3.852,1.7h.053v-1.476Zm-6.661,10.147a3.343,3.343,0,0,0,3.3-3.565,3.339,3.339,0,1,0-6.647,0,3.306,3.306,0,0,0,3.343,3.565Z" transform="translate(-717.185 -630.831)"/><path d="M831.809,634.248c-5.086,0-9.469-3.3-9.469-9.43,0-5.3,3.4-9.571,9.469-9.571a9.511,9.511,0,0,1,7.4,3.565l-2.7,2.3a6.27,6.27,0,0,0-4.7-2.364c-3.233,0-5.623,2.351-5.623,6.07,0,3.45,2.3,5.942,5.623,5.942a6.077,6.077,0,0,0,4.7-2.351l2.7,2.313a9.311,9.311,0,0,1-7.4,3.527Z" transform="translate(-762.263 -615.241)"/><path d="M903.814,620.936c2.821,0,4.819,1.45,4.819,5.433v7.862h-3.513v-6.974c0-2.39-.875-3.173-2.546-3.173-1.867,0-3.056,1.175-3.056,3.513v6.621h-3.5V615.223h3.5v7.516h.052a5.556,5.556,0,0,1,4.245-1.8Z" transform="translate(-816.731 -615.223)"/><path d="M966.274,642.97a6.644,6.644,0,0,1-.091,1.254h-9.155a3.289,3.289,0,0,0,3.33,2.507,3.869,3.869,0,0,0,3.121-1.475l2.272,2.116a6.951,6.951,0,0,1-5.642,2.468,6.476,6.476,0,0,1-6.726-6.764,6.383,6.383,0,0,1,6.478-6.739c3.839,0,6.412,2.808,6.412,6.634Zm-9.233-1.267H962.8a2.77,2.77,0,0,0-2.821-2.285A2.877,2.877,0,0,0,957.041,641.7Z" transform="translate(-859.141 -630.831)"/><path d="M1018.516,649.838a6.752,6.752,0,1,1,.17-13.5,7.124,7.124,0,0,1,5.55,2.507l-2.364,2.037a3.9,3.9,0,0,0-3.043-1.4,3.356,3.356,0,0,0-3.474,3.591,3.391,3.391,0,0,0,3.5,3.617,4.006,4.006,0,0,0,3.03-1.319l2.4,2.116a7.547,7.547,0,0,1-5.772,2.35Z" transform="translate(-902.329 -630.83)"/><path d="M1074.012,629.069l-1.841,2.076v3.121h-3.5V615.272h3.5v11.2h.052l4.662-5.263h4.1l-4.61,5.2,4.688,7.862h-3.9l-3.108-5.2Z" transform="translate(-944.37 -615.259)"/><path d="M1134.018,642.97a6.643,6.643,0,0,1-.092,1.254h-9.155a3.289,3.289,0,0,0,3.33,2.507,3.869,3.869,0,0,0,3.121-1.475l2.272,2.116a6.952,6.952,0,0,1-5.641,2.468,6.476,6.476,0,0,1-6.726-6.764,6.383,6.383,0,0,1,6.478-6.739c3.839,0,6.412,2.808,6.412,6.634Zm-9.233-1.267h5.759a2.77,2.77,0,0,0-2.821-2.285A2.876,2.876,0,0,0,1124.785,641.7Z" transform="translate(-983.15 -630.831)"/><path d="M1187.031,637.186a1.75,1.75,0,0,1,.274.013v3.84c-.352-.026-.731-.039-.927-.039a3.153,3.153,0,0,0-3.33,3.408v6.059h-3.5V637.408h3.5v1.92h.039a4.815,4.815,0,0,1,3.944-2.142Z" transform="translate(-1026.339 -631.46)"/></g><path d="M448.71,598.117A19.2,19.2,0,0,1,429.4,616.8H412.1a1.392,1.392,0,0,1-1.392-1.392V580.192A1.392,1.392,0,0,1,412.1,578.8h17.609a19,19,0,0,1,19,19.317Z" transform="translate(-403.675 -578.8)" fill="url(#a)"/><g transform="translate(0 1.783)"><path d="M398.869,651.676l-14.611,7.4a.964.964,0,0,0,0,1.72l13.429,6.8a2.619,2.619,0,0,0,2.365,0l13.429-6.8a.964.964,0,0,0,0-1.72Z" transform="translate(-383.728 -634.459)" fill="#004dff"/><path d="M397.686,621.5l-13.429,6.8a.964.964,0,0,0,0,1.72l13.429,6.8a2.617,2.617,0,0,0,2.365,0l13.429-6.8a.964.964,0,0,0,0-1.72l-13.429-6.8A2.619,2.619,0,0,0,397.686,621.5Z" transform="translate(-383.728 -611.94)" fill="#00b5ff"/><path d="M423.91,590.174l-16.889,8.554-6.972,3.53a2.623,2.623,0,0,1-2.365,0l-6.922-3.507-.05-.023-6.455-3.269a.963.963,0,0,1,0-1.721l5.431-2.751a.894.894,0,0,1,.8,0l.276.141,6.922,3.5a2.581,2.581,0,0,0,1.147.284h.076a2.568,2.568,0,0,0,1.142-.284l17.734-8.982.023-.01A19.01,19.01,0,0,1,423.91,590.174Z" transform="translate(-383.727 -585.64)" fill="#0ef"/></g></svg>